<svg xmlns="http://www.w3.org/2000/svg" viewBox="0 0 54.09 70.3"><defs><style>.cls-1{fill:#fff;}.cls-2{fill:#841abc;}</style></defs><title>Recurso 10</title><g id="Capa_2" data-name="Capa 2"><g id="Capa_1-2" data-name="Capa 1"><path id="Trazado_147" data-name="Trazado 147" class="cls-1" d="M54.07,1.65C54.07.39,53.68,0,52.44,0H6.81A6.65,6.65,0,0,0,0,6.49v.28q0,28.4,0,56.8a6.61,6.61,0,0,0,3,5.66A9,9,0,0,0,5.49,70.3H53.38a1.79,1.79,0,0,0,.7-1.62Q54.08,35.17,54.07,1.65ZM2.47,53.21V6.85A4.27,4.27,0,0,1,5.16,2.63a5,5,0,0,1,2-.25.45.45,0,0,1,.5.41V2.9c0,.23,0,.46,0,.68V56c0,1,0,1.05-1,1a6.33,6.33,0,0,0-3.63,1.07c-.51.33-.61.17-.61-.35C2.48,56.27,2.47,54.74,2.47,53.21Zm4,11.66A4.42,4.42,0,0,0,7.56,65H46.24c1,0,1,0,1,1.06,0,2,0,2-2,2H26.38C19.93,68,13.48,68,7,68a4.21,4.21,0,0,1-3.78-1.8,4.12,4.12,0,0,1-.34-4.36A3.93,3.93,0,0,1,6.5,59.47H46.21c1.08,0,1.08,0,1.09,1.09,0,.43,0,.87,0,1.3s-.2.66-.66.63c-.23,0-.46,0-.68,0H7.55a3.6,3.6,0,0,0-1.09.07,1.12,1.12,0,0,0-.87,1.17,1.07,1.07,0,0,0,.89,1.15Zm45.12,2.27c0,.83,0,.82-1.07.85-.63,0-1-.09-.94-.85.05-1.13,0-2.28,0-3.42s0-2.33,0-3.49c0-.61.21-.79.8-.78,1.22,0,1.22,0,1.22,1.19,0,2.17,0,4.33,0,6.5Z"/><g id="Grupo_77" data-name="Grupo 77"><path id="Trazado_31" data-name="Trazado 31" class="cls-2" d="M30.68,29.72H19.5a5.84,5.84,0,0,1-1-.08,1.06,1.06,0,0,1-.94-1.16,1.13,1.13,0,0,1,1-1.16,3.21,3.21,0,0,1,.82-.05H42a4.35,4.35,0,0,1,1.08.1,1.07,1.07,0,0,1,.9,1.14,1.11,1.11,0,0,1-.86,1.1,3.35,3.35,0,0,1-1.09.11Z"/><path id="Trazado_32" data-name="Trazado 32" class="cls-2" d="M30.75,23.76H19.37c-.26,0-.5,0-.76,0a1.15,1.15,0,0,1-.13-2.27,5,5,0,0,1,1.09-.09q11.19,0,22.36,0a5.08,5.08,0,0,1,1.23.12A1.06,1.06,0,0,1,44,22.67a1.08,1.08,0,0,1-1,1.06,5.62,5.62,0,0,1-.82,0Z"/><path id="Trazado_33" data-name="Trazado 33" class="cls-2" d="M30.81,35.61h-6.1a3.21,3.21,0,0,1-.82-.07,1.2,1.2,0,0,1-.83-1.46,1.22,1.22,0,0,1,.75-.81,2.9,2.9,0,0,1,1-.14H36.75a3.31,3.31,0,0,1,.94.11,1.11,1.11,0,0,1,.87,1.23,1.14,1.14,0,0,1-1,1.1,4,4,0,0,1-.69,0Z"/></g></g></g></svg>