<svg xmlns="http://www.w3.org/2000/svg" viewBox="0 0 244.72 244.72"><defs><style>.cls-1,.cls-3{fill:none;stroke:#fff;stroke-width:6px;}.cls-2{fill:#fff;}.cls-3{stroke-linecap:round;stroke-linejoin:round;}</style></defs><title>Recurso 22</title><g id="Capa_2" data-name="Capa 2"><g id="Capa_2-2" data-name="Capa 2"><g id="Grupo_212" data-name="Grupo 212"><circle id="Elipse_4" data-name="Elipse 4" class="cls-1" cx="122.36" cy="122.36" r="119.36"/><g id="Grupo_199" data-name="Grupo 199"><g id="Grupo_197" data-name="Grupo 197"><path id="Trazado_90" data-name="Trazado 90" class="cls-2" d="M45.47,85.18a4,4,0,0,1-.85-.09,3.91,3.91,0,0,1-3-4.65A20.23,20.23,0,0,1,53.49,66c6.13-2.68,13.44-2.47,18.63.54a3.89,3.89,0,1,1-3.91,6.73c-3.06-1.77-7.73-1.83-11.6-.14a12.44,12.44,0,0,0-7.35,9A3.88,3.88,0,0,1,45.47,85.18Z"/></g><g id="Grupo_198" data-name="Grupo 198"><path id="Trazado_91" data-name="Trazado 91" class="cls-2" d="M199.24,85.18a3.88,3.88,0,0,1-3.79-3,12.42,12.42,0,0,0-7.35-9.06c-3.87-1.7-8.53-1.63-11.6.15a3.89,3.89,0,1,1-4-6.69l.07,0c5.19-3,12.5-3.23,18.63-.54A20.18,20.18,0,0,1,203,80.45a3.89,3.89,0,0,1-2.95,4.64h0A4,4,0,0,1,199.24,85.18Z"/></g></g><g id="Grupo_206" data-name="Grupo 206"><g id="Grupo_202" data-name="Grupo 202"><g id="Grupo_200" data-name="Grupo 200"><path id="Trazado_92" data-name="Trazado 92" class="cls-2" d="M80.43,132.71A5.83,5.83,0,0,1,76.3,131L48,102.68a5.84,5.84,0,0,1,8.25-8.26l28.32,28.32a5.84,5.84,0,0,1-4.13,10Z"/></g><g id="Grupo_201" data-name="Grupo 201"><path id="Trazado_93" data-name="Trazado 93" class="cls-2" d="M52.11,132.71a5.85,5.85,0,0,1-4.13-10L76.3,94.42a5.84,5.84,0,0,1,8.26,8.26L56.23,131A5.83,5.83,0,0,1,52.11,132.71Z"/></g></g><g id="Grupo_205" data-name="Grupo 205"><g id="Grupo_203" data-name="Grupo 203"><path id="Trazado_94" data-name="Trazado 94" class="cls-2" d="M192.6,132.71a5.81,5.81,0,0,1-4.13-1.71l-28.32-28.32a5.84,5.84,0,0,1,8.25-8.26l28.32,28.32a5.84,5.84,0,0,1-4.12,10Z"/></g><g id="Grupo_204" data-name="Grupo 204"><path id="Trazado_95" data-name="Trazado 95" class="cls-2" d="M164.28,132.71a5.84,5.84,0,0,1-4.13-10l28.32-28.32a5.84,5.84,0,0,1,8.25,8.26L168.4,131A5.79,5.79,0,0,1,164.28,132.71Z"/></g></g></g><g id="Grupo_211" data-name="Grupo 211"><g id="Grupo_207" data-name="Grupo 207"><path id="Trazado_96" data-name="Trazado 96" class="cls-3" d="M122.36,147a30.89,30.89,0,0,0-22.87,10.05h45.73A30.87,30.87,0,0,0,122.36,147Z"/></g><g id="Grupo_210" data-name="Grupo 210"><g id="Grupo_208" data-name="Grupo 208"><path id="Trazado_97" data-name="Trazado 97" class="cls-1" d="M140.87,201.1a29.59,29.59,0,0,0,6.53-41.34,29.19,29.19,0,0,0-2.18-2.67H99.49a29.6,29.6,0,0,0,1.69,41.83,27.77,27.77,0,0,0,2.66,2.18A38,38,0,0,1,140.87,201.1Z"/></g><g id="Grupo_209" data-name="Grupo 209"><path id="Trazado_98" data-name="Trazado 98" class="cls-1" d="M140.87,201.1a38,38,0,0,0-37,0,31,31,0,0,0,37,0Z"/></g></g></g></g></g></g></svg>