<svg xmlns="http://www.w3.org/2000/svg" viewBox="0 0 246 246"><defs><style>.cls-1{fill:none;stroke:#fff;stroke-width:6px;}.cls-2{fill:#fff;}</style></defs><title>Recurso 27</title><g id="Capa_2" data-name="Capa 2"><g id="Capa_2-2" data-name="Capa 2"><g id="Grupo_195" data-name="Grupo 195"><path id="Trazado_84" data-name="Trazado 84" class="cls-1" d="M243,123A120,120,0,1,1,123,3h0A120,120,0,0,1,243,123Z"/><g id="Grupo_187" data-name="Grupo 187"><g id="Grupo_183" data-name="Grupo 183"><g id="Grupo_182" data-name="Grupo 182"><g id="Grupo_181" data-name="Grupo 181"><path id="Trazado_85" data-name="Trazado 85" class="cls-2" d="M89.25,129.68c0,9.65-5.51,17.49-12.32,17.49s-12.32-7.84-12.32-17.49,5.52-17.49,12.32-17.49S89.25,120,89.25,129.68Z"/></g></g></g><g id="Grupo_186" data-name="Grupo 186"><g id="Grupo_185" data-name="Grupo 185"><g id="Grupo_184" data-name="Grupo 184"><path id="Trazado_86" data-name="Trazado 86" class="cls-2" d="M181.38,129.68c0,9.65-5.51,17.49-12.32,17.49s-12.32-7.84-12.32-17.49,5.51-17.49,12.32-17.49S181.38,120,181.38,129.68Z"/></g></g></g></g><g id="Grupo_192" data-name="Grupo 192"><g id="Grupo_189" data-name="Grupo 189"><g id="Grupo_188" data-name="Grupo 188"><path id="Trazado_87" data-name="Trazado 87" class="cls-2" d="M96.53,118.18a3.41,3.41,0,0,1-3.25-2.43c-3.62-12.3-15.93-21.69-30.63-23.36a3.38,3.38,0,1,1,.76-6.72c17.37,2,32,13.3,36.36,28.17a3.37,3.37,0,0,1-2.29,4.2A3.41,3.41,0,0,1,96.53,118.18Z"/></g></g><g id="Grupo_191" data-name="Grupo 191"><g id="Grupo_190" data-name="Grupo 190"><path id="Trazado_88" data-name="Trazado 88" class="cls-2" d="M149.47,118.18a3.36,3.36,0,0,1-3.24-4.33h0c4.38-14.88,19-26.2,36.36-28.17a3.38,3.38,0,1,1,.76,6.72c-14.7,1.66-27,11-30.63,23.35A3.4,3.4,0,0,1,149.47,118.18Z"/></g></g></g><g id="Grupo_194" data-name="Grupo 194"><g id="Grupo_193" data-name="Grupo 193"><path id="Trazado_89" data-name="Trazado 89" class="cls-2" d="M147.15,186.29a5.43,5.43,0,0,1-3.71-1.46,29.87,29.87,0,0,0-19.32-7.7,29.33,29.33,0,0,0-21.52,7.65,5.45,5.45,0,1,1-7.53-7.89c7.55-7.2,18.3-11.08,29.47-10.66a40.75,40.75,0,0,1,26.33,10.62,5.45,5.45,0,0,1-3.72,9.44Z"/></g></g></g></g></g></svg>