<svg xmlns="http://www.w3.org/2000/svg" viewBox="0 0 83.39 69.62"><defs><style>.cls-1{fill:#fff;}</style></defs><title>Recurso 9</title><g id="Capa_2" data-name="Capa 2"><g id="Capa_1-2" data-name="Capa 1"><g id="Grupo_76" data-name="Grupo 76"><path id="Trazado_28" data-name="Trazado 28" class="cls-1" d="M14.32,43.68a8.53,8.53,0,0,1,3-6.58c7.08-6.31,15.34-13.9,22.16-20.49,1.66-1.61,2.67-1.62,4.34,0q11.3,10.92,22.82,21.62A6.72,6.72,0,0,1,69,43.67c-.1,7.42-.09,14.84,0,22.25,0,2.61-.89,3.79-3.64,3.69-4.25-.15-8.5-.11-12.75,0-2.4.06-3.45-.82-3.38-3.27.1-3.66,0-7.32,0-11,.06-2.28-.86-3.26-3.15-3.2q-4.44.13-8.9,0C35,52.11,34,53,34,55.31c.1,3.66,0,7.32,0,11,0,2.16-.72,3.34-3.08,3.3q-6.83-.12-13.65,0c-2.2,0-3-1.06-3-3.09C14.34,62.44,14.32,43.68,14.32,43.68Z"/><path id="Trazado_29" data-name="Trazado 29" class="cls-1" d="M0,38.9a5,5,0,0,1,1.83-3.75L38,1.62c2.56-2.35,5.16-2.1,8,.47Q60.89,15.71,75.73,29.37c2,1.8,4,3.53,5.9,5.4s2.57,3.89.59,5.92-4.1,1.28-5.94-.42Q64.34,29.35,52.44,18.4c-2.75-2.53-5.62-4.94-8.2-7.64-1.88-2-3.22-1.68-5,0Q27.71,21.7,16.06,32.46q-4.8,4.47-9.7,8.84A3.65,3.65,0,0,1,2.19,42,3.72,3.72,0,0,1,0,38.9Z"/></g></g></g></svg>