<svg xmlns="http://www.w3.org/2000/svg" viewBox="0 0 26.36 56.62"><defs><style>.cls-1{fill:#fff;}</style></defs><title>Recurso 3</title><g id="Capa_2" data-name="Capa 2"><g id="Capa_1-2" data-name="Capa 1"><g id="Grupo_421" data-name="Grupo 421"><path id="Trazado_318" data-name="Trazado 318" class="cls-1" d="M17.5,42.47c0,4.25,0,8.5,0,12.75,0,1.09-.37,1.42-1.4,1.4-3,0-6,0-8.92,0-1.6,0-1.64,0-1.64-1.61V30.07c0-1.68,0-1.68-1.63-1.68-1,0-1.93,0-2.9,0-.76,0-1-.33-1-1,0-2.67,0-5.33,0-8,0-.78.29-1.14,1.1-1.11,1,0,1.93,0,2.9,0,1.56,0,1.54,0,1.57-1.63A63.24,63.24,0,0,1,5.74,10C6.47,4.19,10.32.56,16.17.12,19.11-.11,22,.07,25,0c1,0,1.38.32,1.36,1.35-.06,2.43-.06,4.87,0,7.3,0,1-.3,1.4-1.33,1.37-1.58-.06-3.17,0-4.75,0-1.9,0-2.66.74-2.72,2.66-.05,1.51,0,3,0,4.52,0,.83.31,1.08,1.1,1.06,2.2,0,4.4,0,6.6,0,.91,0,1.24.24,1.14,1.19-.3,2.65-.53,5.3-.77,8-.07.78-.47,1-1.22,1-1.74,0-3.48,0-5.22,0s-1.62,0-1.62,1.67Q17.51,36.28,17.5,42.47Z"/></g></g></g></svg>