<svg xmlns="http://www.w3.org/2000/svg" viewBox="0 0 56.34 56.8"><defs><style>.cls-1{fill:#fff;}</style></defs><title>Recurso 1</title><g id="Capa_2" data-name="Capa 2"><g id="Capa_1-2" data-name="Capa 1"><g id="Grupo_33" data-name="Grupo 33"><g id="ícono_ws" data-name="ícono ws"><path id="Trazado_14" data-name="Trazado 14" class="cls-1" d="M28.39,55.61a25.05,25.05,0,0,1-11.68-2.67,3.92,3.92,0,0,0-3.26-.2C9.57,54,5.66,55.26,1.76,56.51c-.5.16-1.08.5-1.53.1s0-1,.11-1.49c1.21-3.7,2.4-7.41,3.73-11.07a4.2,4.2,0,0,0-.27-3.61A27.81,27.81,0,0,1,30,0C43.55.59,55.1,11.87,56.23,25.31a27.9,27.9,0,0,1-23.62,30C31.22,55.53,29.8,55.52,28.39,55.61Zm-21-6.1c2.53-.79,4.7-1.42,6.85-2.14a3.36,3.36,0,0,1,3,.27,22.28,22.28,0,0,0,12.57,2.9A22.52,22.52,0,0,0,51.24,28.68C51.53,16.43,42.67,6.06,31,5.15c-9.31-.72-16.82,2.74-21.75,10.7s-4.66,16.06,0,24a3.42,3.42,0,0,1,.3,3.22c-.73,2-1.34,4-2.12,6.39Z"/><path id="Trazado_15" data-name="Trazado 15" class="cls-1" d="M35.17,41.78a24.88,24.88,0,0,1-11.3-5.47c-4.25-3.8-7.89-8.1-9.15-13.87a7.44,7.44,0,0,1,2.51-7.27c2-1.87,4.44-1.31,5.45,1.2.4,1,.65,2.06,1.13,3a3.61,3.61,0,0,1-.89,4.86c-1,.85-.78,1.69-.18,2.65A19.09,19.09,0,0,0,30.24,34c1.42.75,2.37.69,3.47-.57C35.94,30.9,36,31,39,32.6l1.6.86c2.88,1.52,3.16,4.34.57,6.45A8.37,8.37,0,0,1,35.17,41.78Z"/></g></g></g></g></svg>