<svg xmlns="http://www.w3.org/2000/svg" viewBox="0 0 69.68 56.92"><defs><style>.cls-1{fill:#fff;}</style></defs><title>Recurso 2</title><g id="Capa_2" data-name="Capa 2"><g id="Capa_1-2" data-name="Capa 1"><g id="Grupo_420" data-name="Grupo 420"><path id="Trazado_315" data-name="Trazado 315" class="cls-1" d="M20.9,44.53c-.68-.08-1.26-.1-1.82-.2a14.09,14.09,0,0,1-6.64-2.93A14.29,14.29,0,0,1,7.84,35c-.2-.57-.17-.61.44-.52a14.21,14.21,0,0,0,5.32-.17l.15,0c-.05-.11-.14-.1-.22-.12a14.09,14.09,0,0,1-5.74-2.94,14.41,14.41,0,0,1-4.57-7,15,15,0,0,1-.59-3.82c0-.35.14-.44.46-.27a14.26,14.26,0,0,0,5.63,1.58.5.5,0,0,0,.15-.05,19.31,19.31,0,0,1-1.95-1.67A14.38,14.38,0,0,1,4.55,3c.17-.3.3-.25.48,0A35.52,35.52,0,0,0,8.65,6.82a40.84,40.84,0,0,0,7.23,5.37,43.58,43.58,0,0,0,6,2.89,40.27,40.27,0,0,0,7.62,2,29.05,29.05,0,0,0,4.26.46c.23,0,.33,0,.27-.3a13.72,13.72,0,0,1,0-5.6,14.32,14.32,0,0,1,5.8-8.95A13.06,13.06,0,0,1,45.26.4,13.45,13.45,0,0,1,47.94,0a15.7,15.7,0,0,1,6.88,1.72,14,14,0,0,1,3.45,2.52.79.79,0,0,0,.8.26,27.47,27.47,0,0,0,6.6-2.29c.57-.28,1.12-.6,1.67-.9.11-.06.21-.17.33-.06s0,.2,0,.3A14.43,14.43,0,0,1,64,7.17,15.18,15.18,0,0,1,61.81,9c.42-.05.84-.09,1.24-.17a27.21,27.21,0,0,0,6.18-1.87l.28-.08c.06,0,.15,0,.17.06a.25.25,0,0,1-.05.15,37.73,37.73,0,0,1-4.86,5.47c-.57.51-1.19,1-1.8,1.43a.89.89,0,0,0-.4.8,39.47,39.47,0,0,1-.26,6.05,45.61,45.61,0,0,1-1,5.21,42.94,42.94,0,0,1-5.5,12.6,44.56,44.56,0,0,1-4.61,5.9A33.9,33.9,0,0,1,48,47.61a38.85,38.85,0,0,1-21.07,8.92,39,39,0,0,1-6.2.38c-1.14-.06-2.27-.21-3.4-.33a40.87,40.87,0,0,1-5.06-.89,41.72,41.72,0,0,1-6.86-2.34A53,53,0,0,1,.2,50.63c-.11-.06-.25-.12-.18-.28s.22-.09.34-.07a16.1,16.1,0,0,0,3.4.18,30.23,30.23,0,0,0,5.35-.6,28.38,28.38,0,0,0,9-3.45A29,29,0,0,0,20.9,44.53Z"/></g></g></g></svg>