<svg id="Capa_1" data-name="Capa 1" xmlns="http://www.w3.org/2000/svg" viewBox="0 0 204.2 194.6"><defs><style>.cls-1{isolation:isolate;}.cls-2{fill:#fff;}</style></defs><title>pregunta</title><g class="cls-1"><path class="cls-2" d="M112.8,206.2q6.8,7.2,18.2,7.2,14.2,0,21.5-7.7t7.3-20.9a9.83,9.83,0,0,1,2.9-7.4,10.16,10.16,0,0,1,17.5,7.4,49.11,49.11,0,0,1-6.1,24.6,42.43,42.43,0,0,1-17.3,16.8q-11.2,6-25.8,6a48.24,48.24,0,0,1-23.1-5.5,40.26,40.26,0,0,1-16.1-15.4A43.64,43.64,0,0,1,86,188.8a48.5,48.5,0,0,1,3.4-18.9,49.18,49.18,0,0,1,9.2-14.4,138.94,138.94,0,0,1,15-13.7,21.6,21.6,0,0,0,7-10.2,36,36,0,0,0,2.2-11.6,9.83,9.83,0,0,1,2.9-7.4,10.16,10.16,0,0,1,17.5,7.4,42.36,42.36,0,0,1-4.2,17.6,45.81,45.81,0,0,1-12.2,16,135.08,135.08,0,0,0-11.5,10.6,37.37,37.37,0,0,0-6.6,10.2,34.92,34.92,0,0,0-2.7,14.4A24.44,24.44,0,0,0,112.8,206.2ZM123.2,96.4a13.44,13.44,0,0,1-4.2-9.8,13.27,13.27,0,0,1,4.1-9.7,13.49,13.49,0,0,1,9.9-4.1,13.66,13.66,0,0,1,13.8,13.8,13.49,13.49,0,0,1-4.1,9.9,13.27,13.27,0,0,1-9.7,4.1A13.44,13.44,0,0,1,123.2,96.4Z" transform="translate(-86 -37.6)"/><path class="cls-2" d="M263.4,63.6q-6.79-7.2-18.2-7.2-14.2,0-21.5,7.7T216.4,85a10.07,10.07,0,0,1-2.8,7.3A10.25,10.25,0,0,1,196,85a49.11,49.11,0,0,1,6.1-24.6,42.43,42.43,0,0,1,17.3-16.8q11.21-6,25.8-6a48.24,48.24,0,0,1,23.1,5.5,40.26,40.26,0,0,1,16.1,15.4A43.64,43.64,0,0,1,290.2,81a48.5,48.5,0,0,1-3.4,18.9,49.18,49.18,0,0,1-9.2,14.4,138.94,138.94,0,0,1-15,13.7,21.6,21.6,0,0,0-7,10.2,36,36,0,0,0-2.2,11.6,10.07,10.07,0,0,1-2.8,7.3,10.25,10.25,0,0,1-17.6-7.3,42.36,42.36,0,0,1,4.2-17.6,45.81,45.81,0,0,1,12.2-16,135.08,135.08,0,0,0,11.5-10.6,37.37,37.37,0,0,0,6.6-10.2A34.92,34.92,0,0,0,270.2,81,24.44,24.44,0,0,0,263.4,63.6ZM253.1,173.3a13.49,13.49,0,0,1,4.1,9.9,13.27,13.27,0,0,1-4.1,9.7,13.49,13.49,0,0,1-9.9,4.1,14,14,0,0,1-13.8-13.8,13.49,13.49,0,0,1,4.1-9.9,13.27,13.27,0,0,1,9.7-4.1A13.49,13.49,0,0,1,253.1,173.3Z" transform="translate(-86 -37.6)"/></g></svg>