<svg xmlns="http://www.w3.org/2000/svg" viewBox="0 0 46.8 79.7"><defs><style>.cls-1{isolation:isolate;}.cls-2{fill:#fff;}</style></defs><title>Recurso 3</title><g id="Capa_2" data-name="Capa 2"><g id="Capa_1-2" data-name="Capa 1"><g class="cls-1"><path class="cls-2" d="M37.2,14.45A13.68,13.68,0,0,0,31.8,9.3a16.45,16.45,0,0,0-8-1.9q-7.39,0-11.75,4.45A15.83,15.83,0,0,0,7.7,23.4a3.72,3.72,0,0,1-1,2.75A3.72,3.72,0,0,1,3.9,27.2a3.89,3.89,0,0,1-2.8-1.05A3.65,3.65,0,0,1,0,23.4,24.13,24.13,0,0,1,3,11.3,21.42,21.42,0,0,1,11.4,3,25.1,25.1,0,0,1,23.8,0,24.43,24.43,0,0,1,35.65,2.85a20.93,20.93,0,0,1,8.2,7.85A21.77,21.77,0,0,1,46.8,22a21.07,21.07,0,0,1-1.6,8.55A25.18,25.18,0,0,1,41.15,37a88.83,88.83,0,0,1-6.95,6.9l-1.8,1.6a13.78,13.78,0,0,0-3.95,5.85A20.28,20.28,0,0,0,27.3,58a4,4,0,0,1-1.1,2.85A3.69,3.69,0,0,1,23.4,62a3.69,3.69,0,0,1-2.8-1.15A4,4,0,0,1,19.5,58a21.94,21.94,0,0,1,2-8.7,23.17,23.17,0,0,1,5.4-7.8l2.5-2.3c2.27-2.13,4-3.92,5.3-5.35a18,18,0,0,0,3.15-5.2,18.52,18.52,0,0,0,1.25-7A13.89,13.89,0,0,0,37.2,14.45ZM27.55,69.7a5.6,5.6,0,0,1,1.75,4.2A5.49,5.49,0,0,1,27.55,78a5.77,5.77,0,0,1-4.15,1.7A5.55,5.55,0,0,1,19.25,78a6,6,0,0,1,.05-8.3A5.6,5.6,0,0,1,23.4,68,5.77,5.77,0,0,1,27.55,69.7Z"/></g></g></g></svg>