<svg xmlns="http://www.w3.org/2000/svg" viewBox="0 0 45.13 51.29"><defs><style>.cls-1{fill:#fff;}</style></defs><title>Recurso 7</title><g id="Capa_2" data-name="Capa 2"><g id="Capa_1-2" data-name="Capa 1"><path id="Trazado_8" data-name="Trazado 8" class="cls-1" d="M9,19.4a8.41,8.41,0,0,1,4.61,1.35.69.69,0,0,0,.94-.05q6.2-4.57,12.41-9.11a.68.68,0,0,0,.3-.78A9,9,0,0,1,34.37.18,8.41,8.41,0,0,1,36.82,0a9.09,9.09,0,0,1,.29,18.08,8.65,8.65,0,0,1-6.18-1.64.72.72,0,0,0-1,0l0,0Q24,20.91,18.13,25.3a.91.91,0,0,0-.39,1.14A6,6,0,0,1,18,29a.53.53,0,0,0,.34.59Q22.69,32,27,34.39c.63.35,1.27.69,1.89,1a.63.63,0,0,0,.86-.08,8.9,8.9,0,0,1,4.49-2.13,9.08,9.08,0,0,1,2.79,18l-.51.07a9.08,9.08,0,0,1-9.8-7.54,8.31,8.31,0,0,1-.08-2.28.77.77,0,0,0-.47-.9l-8-4.62c-.66-.38-1.33-.74-2-1.15-.38-.25-.6-.18-.93.12A8.57,8.57,0,0,1,5.93,37,8.66,8.66,0,0,1,0,29.21a9,9,0,0,1,7.91-9.76C8.3,19.41,8.66,19.42,9,19.4Z"/></g></g></svg>