<svg xmlns="http://www.w3.org/2000/svg" viewBox="0 0 60 59.97"><defs><style>.cls-1{fill:none;}.cls-2{fill:#fff;}</style></defs><title>Recurso 11</title><g id="Capa_2" data-name="Capa 2"><g id="Capa_1-2" data-name="Capa 1"><g id="Sound"><g id="Trazado_9" data-name="Trazado 9"><path class="cls-1" d="M36.05,30V57.07a2.78,2.78,0,0,1-2.25,2.84,2.69,2.69,0,0,1-2.36-.6L21.21,50.46l-8-6.94a1.13,1.13,0,0,0-.79-.24H3.08A2.85,2.85,0,0,1,.21,41.44,3.29,3.29,0,0,1,0,40.2V19.53a2.87,2.87,0,0,1,2.65-3.08,2.36,2.36,0,0,1,.46,0h9.53a1.34,1.34,0,0,0,.95-.35Q19.47,11,25.36,5.92c1.9-1.65,3.82-3.28,5.7-4.95a3.05,3.05,0,0,1,2.77-.9,2.77,2.77,0,0,1,2.22,2.82V30Z"/><path class="cls-2" d="M31.05,52.36V7.61l-1,.82L28.62,9.7l-3,2.6-8.74,7.57a6.37,6.37,0,0,1-4.22,1.58H5V38.28h7.41a6,6,0,0,1,4.07,1.46c2.29,2,4.62,4,6.88,6l1.12,1,2.17,1.87,4.4,3.81M33.19,60a2.6,2.6,0,0,1-1.75-.66L21.21,50.46c-2.67-2.31-5.35-4.62-8-6.94a1.09,1.09,0,0,0-.79-.24H3.08A2.84,2.84,0,0,1,.21,41.43,3.22,3.22,0,0,1,0,40.2V19.52a2.88,2.88,0,0,1,3.12-3.07h9.53a1.3,1.3,0,0,0,.94-.36L25.35,5.92c1.91-1.65,3.82-3.29,5.71-5a3.29,3.29,0,0,1,2.19-1,2.93,2.93,0,0,1,.58.06,2.78,2.78,0,0,1,2.22,2.82V57.07A2.76,2.76,0,0,1,33.8,59.9,3.23,3.23,0,0,1,33.19,60Z"/></g><path id="Trazado_11" data-name="Trazado 11" class="cls-2" d="M60,29.94a36.24,36.24,0,0,1-7,21.45,2.82,2.82,0,0,1-3.93.66A2.82,2.82,0,0,1,48.5,48a30.49,30.49,0,0,0,0-35.91,2.81,2.81,0,0,1,4.43-3.47h0a35,35,0,0,1,4.59,8.29,36.11,36.11,0,0,1,2.25,9C59.91,27.28,60,28.66,60,29.94Z"/><path id="Trazado_12" data-name="Trazado 12" class="cls-2" d="M49.17,30a24.43,24.43,0,0,1-4,13.35,2.81,2.81,0,0,1-4.86-2.83c0-.06.07-.12.11-.17A19,19,0,0,0,42,22.56a19.65,19.65,0,0,0-1.49-2.79,2.79,2.79,0,0,1,.64-3.89,2.75,2.75,0,0,1,1.46-.52,2.64,2.64,0,0,1,2.59,1.29,23.2,23.2,0,0,1,2.09,3.94,23.74,23.74,0,0,1,1.87,8.91C49.14,29.66,49.16,29.83,49.17,30Z"/></g></g></g></svg>