<svg id="Capa_1" data-name="Capa 1" xmlns="http://www.w3.org/2000/svg" viewBox="0 0 923.51 430.13"><defs><style>.cls-1{fill:none;stroke:#fff;stroke-linecap:round;stroke-miterlimit:10;stroke-width:2.61px;}.cls-2{fill:#fff;}</style></defs><title>LIFE</title><line class="cls-1" x1="43.73" y1="388.69" x2="59.02" y2="403.98"/><line class="cls-1" x1="53.93" y1="361.91" x2="96" y2="403.98"/><line class="cls-1" x1="64.12" y1="335.12" x2="132.97" y2="403.98"/><line class="cls-1" x1="74.31" y1="308.34" x2="169.95" y2="403.98"/><line class="cls-1" x1="84.51" y1="281.56" x2="133.75" y2="330.8"/><line class="cls-1" x1="187.73" y1="384.78" x2="142.87" y2="339.92"/><line class="cls-1" x1="197.92" y1="357.99" x2="179.85" y2="339.92"/><line class="cls-1" x1="94.7" y1="254.77" x2="143.94" y2="304.01"/><line class="cls-1" x1="104.9" y1="227.99" x2="154.14" y2="277.23"/><line class="cls-1" x1="115.09" y1="201.2" x2="164.33" y2="250.45"/><line class="cls-1" x1="125.28" y1="174.42" x2="174.53" y2="223.66"/><line class="cls-1" x1="135.48" y1="147.64" x2="184.72" y2="196.88"/><line class="cls-1" x1="145.67" y1="120.85" x2="194.91" y2="170.09"/><line class="cls-1" x1="155.87" y1="94.07" x2="205.11" y2="143.31"/><line class="cls-1" x1="166.06" y1="67.28" x2="215.3" y2="116.52"/><line class="cls-1" x1="176.25" y1="40.5" x2="225.5" y2="89.74"/><line class="cls-1" x1="186.45" y1="13.71" x2="235.69" y2="62.96"/><line class="cls-1" x1="211.02" y1="1.31" x2="245.88" y2="36.17"/><line class="cls-1" x1="248" y1="1.31" x2="256.08" y2="9.39"/><line class="cls-1" x1="48.83" y1="375.3" x2="77.51" y2="403.98"/><line class="cls-1" x1="59.02" y1="348.52" x2="114.49" y2="403.98"/><line class="cls-1" x1="69.22" y1="321.73" x2="151.46" y2="403.98"/><line class="cls-1" x1="79.41" y1="294.95" x2="182.63" y2="398.17"/><line class="cls-1" x1="192.82" y1="371.38" x2="161.36" y2="339.92"/><line class="cls-1" x1="89.6" y1="268.16" x2="138.85" y2="317.41"/><line class="cls-1" x1="99.8" y1="241.38" x2="149.04" y2="290.62"/><line class="cls-1" x1="203.01" y1="344.6" x2="198.34" y2="339.92"/><line class="cls-1" x1="109.99" y1="214.6" x2="159.23" y2="263.84"/><line class="cls-1" x1="120.19" y1="187.81" x2="169.43" y2="237.05"/><line class="cls-1" x1="130.38" y1="161.03" x2="179.62" y2="210.27"/><line class="cls-1" x1="140.57" y1="134.24" x2="189.82" y2="183.49"/><line class="cls-1" x1="150.77" y1="107.46" x2="200.01" y2="156.7"/><line class="cls-1" x1="160.96" y1="80.68" x2="210.2" y2="129.92"/><line class="cls-1" x1="171.16" y1="53.89" x2="220.4" y2="103.13"/><line class="cls-1" x1="181.35" y1="27.11" x2="230.59" y2="76.35"/><line class="cls-1" x1="192.53" y1="1.31" x2="240.79" y2="49.56"/><line class="cls-1" x1="229.51" y1="1.31" x2="250.98" y2="22.78"/><line class="cls-1" x1="262.03" y1="403.98" x2="251.95" y2="393.89"/><line class="cls-1" x1="299.01" y1="403.98" x2="262.14" y2="367.11"/><line class="cls-1" x1="321.58" y1="389.57" x2="272.33" y2="340.32"/><line class="cls-1" x1="331.77" y1="362.78" x2="282.53" y2="313.54"/><line class="cls-1" x1="341.96" y1="336" x2="292.72" y2="286.76"/><line class="cls-1" x1="352.16" y1="309.21" x2="302.92" y2="259.97"/><line class="cls-1" x1="362.35" y1="282.43" x2="313.11" y2="233.19"/><line class="cls-1" x1="372.55" y1="255.64" x2="323.3" y2="206.4"/><line class="cls-1" x1="382.74" y1="228.86" x2="333.5" y2="179.62"/><line class="cls-1" x1="392.93" y1="202.08" x2="343.69" y2="152.83"/><line class="cls-1" x1="403.13" y1="175.29" x2="353.89" y2="126.05"/><line class="cls-1" x1="413.32" y1="148.51" x2="364.08" y2="99.27"/><line class="cls-1" x1="423.52" y1="121.72" x2="374.27" y2="72.48"/><line class="cls-1" x1="433.71" y1="94.94" x2="384.47" y2="45.7"/><line class="cls-1" x1="443.9" y1="68.16" x2="394.66" y2="18.91"/><line class="cls-1" x1="454.1" y1="41.37" x2="414.03" y2="1.31"/><line class="cls-1" x1="464.29" y1="14.59" x2="451.01" y2="1.31"/><line class="cls-1" x1="280.52" y1="403.98" x2="257.04" y2="380.5"/><line class="cls-1" x1="316.48" y1="402.96" x2="267.24" y2="353.72"/><line class="cls-1" x1="326.67" y1="376.17" x2="277.43" y2="326.93"/><line class="cls-1" x1="336.87" y1="349.39" x2="287.62" y2="300.15"/><line class="cls-1" x1="347.06" y1="322.6" x2="297.82" y2="273.36"/><line class="cls-1" x1="357.25" y1="295.82" x2="308.01" y2="246.58"/><line class="cls-1" x1="367.45" y1="269.04" x2="318.21" y2="219.79"/><line class="cls-1" x1="377.64" y1="242.25" x2="328.4" y2="193.01"/><line class="cls-1" x1="387.84" y1="215.47" x2="338.59" y2="166.23"/><line class="cls-1" x1="398.03" y1="188.68" x2="348.79" y2="139.44"/><line class="cls-1" x1="408.22" y1="161.9" x2="358.98" y2="112.66"/><line class="cls-1" x1="418.42" y1="135.12" x2="369.18" y2="85.87"/><line class="cls-1" x1="428.61" y1="108.33" x2="379.37" y2="59.09"/><line class="cls-1" x1="438.81" y1="81.55" x2="389.56" y2="32.31"/><line class="cls-1" x1="449" y1="54.76" x2="399.76" y2="5.52"/><line class="cls-1" x1="459.19" y1="27.98" x2="432.52" y2="1.31"/><line class="cls-1" x1="387.9" y1="400.79" x2="391.09" y2="403.98"/><line class="cls-1" x1="398.1" y1="374.01" x2="428.07" y2="403.98"/><line class="cls-1" x1="408.29" y1="347.22" x2="457.53" y2="396.46"/><line class="cls-1" x1="418.48" y1="320.44" x2="467.73" y2="369.68"/><line class="cls-1" x1="428.68" y1="293.65" x2="477.92" y2="342.9"/><line class="cls-1" x1="438.87" y1="266.87" x2="488.11" y2="316.11"/><line class="cls-1" x1="449.07" y1="240.08" x2="498.31" y2="289.33"/><line class="cls-1" x1="459.26" y1="213.3" x2="508.5" y2="262.54"/><line class="cls-1" x1="469.45" y1="186.52" x2="518.7" y2="235.76"/><line class="cls-1" x1="479.65" y1="159.73" x2="528.89" y2="208.97"/><line class="cls-1" x1="489.84" y1="132.95" x2="539.08" y2="182.19"/><line class="cls-1" x1="500.04" y1="106.16" x2="575.6" y2="181.73"/><line class="cls-1" x1="510.23" y1="79.38" x2="601.3" y2="170.45"/><line class="cls-1" x1="520.42" y1="52.6" x2="569.67" y2="101.84"/><line class="cls-1" x1="611.36" y1="143.53" x2="585.49" y2="117.66"/><line class="cls-1" x1="530.62" y1="25.81" x2="579.86" y2="75.05"/><line class="cls-1" x1="543.09" y1="1.31" x2="607.15" y2="65.37"/><line class="cls-1" x1="644.13" y1="65.37" x2="580.07" y2="1.31"/><line class="cls-1" x1="676.93" y1="61.19" x2="617.05" y2="1.31"/><line class="cls-1" x1="687.04" y1="34.32" x2="654.03" y2="1.31"/><line class="cls-1" x1="697.15" y1="7.45" x2="691" y2="1.31"/><line class="cls-1" x1="393" y1="387.4" x2="409.58" y2="403.98"/><line class="cls-1" x1="403.19" y1="360.61" x2="446.56" y2="403.98"/><line class="cls-1" x1="413.39" y1="333.83" x2="462.63" y2="383.07"/><line class="cls-1" x1="423.58" y1="307.05" x2="472.82" y2="356.29"/><line class="cls-1" x1="433.77" y1="280.26" x2="483.02" y2="329.5"/><line class="cls-1" x1="443.97" y1="253.48" x2="493.21" y2="302.72"/><line class="cls-1" x1="454.16" y1="226.69" x2="503.4" y2="275.93"/><line class="cls-1" x1="464.36" y1="199.91" x2="513.6" y2="249.15"/><line class="cls-1" x1="474.55" y1="173.12" x2="523.79" y2="222.37"/><line class="cls-1" x1="484.74" y1="146.34" x2="533.99" y2="195.58"/><line class="cls-1" x1="494.94" y1="119.56" x2="557.11" y2="181.73"/><line class="cls-1" x1="505.13" y1="92.77" x2="594.09" y2="181.73"/><line class="cls-1" x1="515.33" y1="65.99" x2="564.57" y2="115.23"/><line class="cls-1" x1="606.33" y1="156.99" x2="567" y2="117.66"/><line class="cls-1" x1="525.52" y1="39.2" x2="574.76" y2="88.45"/><line class="cls-1" x1="616.39" y1="130.07" x2="603.98" y2="117.66"/><line class="cls-1" x1="588.66" y1="65.37" x2="535.71" y2="12.42"/><line class="cls-1" x1="625.64" y1="65.37" x2="561.58" y2="1.31"/><line class="cls-1" x1="662.62" y1="65.37" x2="598.56" y2="1.31"/><line class="cls-1" x1="681.99" y1="47.76" x2="635.54" y2="1.31"/><line class="cls-1" x1="692.1" y1="20.89" x2="672.52" y2="1.31"/><line class="cls-1" x1="618.04" y1="390.37" x2="631.65" y2="403.98"/><line class="cls-1" x1="638.43" y1="336.8" x2="705.6" y2="403.98"/><line class="cls-1" x1="648.62" y1="310.02" x2="742.58" y2="403.98"/><line class="cls-1" x1="774.57" y1="398.98" x2="715.5" y2="339.92"/><line class="cls-1" x1="658.82" y1="283.24" x2="708.06" y2="332.48"/><line class="cls-1" x1="784.76" y1="372.2" x2="752.48" y2="339.92"/><line class="cls-1" x1="669.01" y1="256.45" x2="718.25" y2="305.69"/><line class="cls-1" x1="679.21" y1="229.67" x2="728.45" y2="278.91"/><line class="cls-1" x1="794.95" y1="345.41" x2="789.46" y2="339.92"/><line class="cls-1" x1="689.4" y1="202.88" x2="738.64" y2="252.13"/><line class="cls-1" x1="699.59" y1="176.1" x2="748.84" y2="225.34"/><line class="cls-1" x1="709.79" y1="149.32" x2="759.03" y2="198.56"/><line class="cls-1" x1="719.98" y1="122.53" x2="779.18" y2="181.73"/><line class="cls-1" x1="730.18" y1="95.75" x2="816.15" y2="181.73"/><line class="cls-1" x1="740.37" y1="68.96" x2="830.55" y2="159.14"/><line class="cls-1" x1="750.56" y1="42.18" x2="799.81" y2="91.42"/><line class="cls-1" x1="840.74" y1="132.36" x2="826.05" y2="117.66"/><line class="cls-1" x1="760.76" y1="15.39" x2="810.73" y2="65.37"/><line class="cls-1" x1="783.65" y1="1.31" x2="847.71" y2="65.37"/><line class="cls-1" x1="820.63" y1="1.31" x2="884.69" y2="65.37"/><line class="cls-1" x1="857.61" y1="1.31" x2="907.04" y2="50.74"/><line class="cls-1" x1="894.58" y1="1.31" x2="917.15" y2="23.87"/><line class="cls-1" x1="623.14" y1="376.98" x2="650.14" y2="403.98"/><line class="cls-1" x1="633.33" y1="350.2" x2="687.12" y2="403.98"/><line class="cls-1" x1="643.53" y1="323.41" x2="724.09" y2="403.98"/><line class="cls-1" x1="653.72" y1="296.63" x2="761.07" y2="403.98"/><line class="cls-1" x1="779.66" y1="385.59" x2="733.99" y2="339.92"/><line class="cls-1" x1="663.92" y1="269.84" x2="713.16" y2="319.09"/><line class="cls-1" x1="674.11" y1="243.06" x2="723.35" y2="292.3"/><line class="cls-1" x1="789.85" y1="358.8" x2="770.97" y2="339.92"/><line class="cls-1" x1="684.3" y1="216.28" x2="733.55" y2="265.52"/><line class="cls-1" x1="694.5" y1="189.49" x2="743.74" y2="238.73"/><line class="cls-1" x1="704.69" y1="162.71" x2="753.93" y2="211.95"/><line class="cls-1" x1="714.89" y1="135.92" x2="764.13" y2="185.17"/><line class="cls-1" x1="725.08" y1="109.14" x2="797.67" y2="181.73"/><line class="cls-1" x1="735.27" y1="82.35" x2="825.45" y2="172.53"/><line class="cls-1" x1="835.65" y1="145.75" x2="807.56" y2="117.66"/><line class="cls-1" x1="745.47" y1="55.57" x2="794.71" y2="104.81"/><line class="cls-1" x1="755.66" y1="28.79" x2="804.9" y2="78.03"/><line class="cls-1" x1="829.22" y1="65.37" x2="765.86" y2="2"/><line class="cls-1" x1="802.14" y1="1.31" x2="866.2" y2="65.37"/><line class="cls-1" x1="839.12" y1="1.31" x2="901.98" y2="64.17"/><line class="cls-1" x1="876.09" y1="1.31" x2="912.09" y2="37.31"/><line class="cls-1" x1="913.07" y1="1.31" x2="922.2" y2="10.44"/><line class="cls-1" x1="628.24" y1="363.59" x2="668.63" y2="403.98"/><path class="cls-2" d="M4744,2763h-68l153.25-402.65-37.91,26.13-153.25,402.67h68l38.23-26.15,1.28-4.19Z" transform="translate(-4427.89 -2358.99)"/><path class="cls-2" d="M4608.31,2763H4465.8L4619,2360.48l-.21-.18-37.64,26.15q-76.62,201.33-153.25,402.67H4570.4l37.92-26.15v0Z" transform="translate(-4427.89 -2358.99)"/><path class="cls-2" d="M4882.56,2763h-68l153.25-402.65-37.9,26.13-153.26,402.67h68l38.23-26.15.52-2.18Z" transform="translate(-4427.89 -2358.99)"/><path class="cls-2" d="M5025,2540.72h-57.82l-10,26.14h29.87l38.32-26.14-.21-.54Z" transform="translate(-4427.89 -2358.99)"/><path class="cls-2" d="M5103.24,2424.36h-91.81l-10,26.15h63.85l38.49-26.15c-.1-.25-.19-.51-.29-.76C5103.43,2423.85,5103.34,2424.11,5103.24,2424.36Z" transform="translate(-4427.89 -2358.99)"/><path class="cls-2" d="M5249.84,2540.72h-56.52l-9.95,26.14h28.56l38.31-26.14-.19-.55Z" transform="translate(-4427.89 -2358.99)"/><path class="cls-2" d="M5200.55,2763h-159.8L5194,2360.32l-37.91,26.13-153.25,402.67h159.8l37.92-26.15v0Z" transform="translate(-4427.89 -2358.99)"/><path class="cls-2" d="M5329.42,2424.36h-91.81l-9.95,26.15h63.84l38.49-26.15-.28-.76C5329.61,2423.85,5329.51,2424.11,5329.42,2424.36Z" transform="translate(-4427.89 -2358.99)"/></svg>