<svg xmlns="http://www.w3.org/2000/svg" xmlns:xlink="http://www.w3.org/1999/xlink" viewBox="0 0 1600.68 1443.88"><defs><style>.cls-1,.cls-3{fill:none;}.cls-2{clip-path:url(#clip-path);}.cls-3{stroke:#fff;stroke-miterlimit:10;stroke-width:2.61px;}.cls-4{clip-path:url(#clip-path-2);}.cls-5{clip-path:url(#clip-path-3);}.cls-6{clip-path:url(#clip-path-4);}.cls-7{fill:#fff;}.cls-8{clip-path:url(#clip-path-5);}.cls-9{fill:#001c58;}.cls-10{fill:#003383;}.cls-11{fill:#3ff;}.cls-12{fill:#b730bb;}.cls-13{fill:#801aa6;}</style><clipPath id="clip-path"><path class="cls-1" d="M553.09,329.25h-68L331.86,731.92H474.37l24.36-64.06H424.22Z"/></clipPath><clipPath id="clip-path-2"><polygon class="cls-1" points="695.3 329.25 763.29 329.25 610.03 731.92 542.05 731.92 695.3 329.25"/></clipPath><clipPath id="clip-path-3"><path class="cls-1" d="M833.88,329.25,680.63,731.92h68L833.2,509.67H891q12-32,23.93-64.06H857.58l19.91-52.3H969.3q12-32,24.11-64.06Z"/></clipPath><clipPath id="clip-path-4"><path class="cls-1" d="M1060.06,329.25,906.81,731.92h159.8L1091,667.86H999.17l60.21-158.19h56.51l24.39-64.06h-56.52l19.9-52.3h91.81q12.06-32,24.11-64.06Z"/></clipPath><clipPath id="clip-path-5"><polygon class="cls-1" points="831.9 832.79 796.85 913.85 143.36 913.85 178.42 832.79 831.9 832.79"/></clipPath></defs><title>Recurso 4</title><g id="Capa_2" data-name="Capa 2"><g id="Capa_1-2" data-name="Capa 1"><g class="cls-2"><line class="cls-3" x1="0.92" y1="379.89" x2="648.04" y2="1027.01"/><line class="cls-3" x1="19.41" y1="361.4" x2="666.53" y2="1008.52"/><line class="cls-3" x1="37.9" y1="342.91" x2="685.02" y2="990.03"/><line class="cls-3" x1="56.39" y1="324.42" x2="703.51" y2="971.54"/><line class="cls-3" x1="74.88" y1="305.93" x2="722" y2="953.05"/><line class="cls-3" x1="93.37" y1="287.44" x2="740.49" y2="934.56"/><line class="cls-3" x1="111.86" y1="268.96" x2="758.98" y2="916.07"/><line class="cls-3" x1="130.35" y1="250.47" x2="777.47" y2="897.58"/><line class="cls-3" x1="148.84" y1="231.98" x2="795.95" y2="879.09"/><line class="cls-3" x1="167.33" y1="213.49" x2="814.44" y2="860.61"/><line class="cls-3" x1="185.82" y1="195" x2="832.93" y2="842.12"/><line class="cls-3" x1="204.3" y1="176.51" x2="851.42" y2="823.63"/><line class="cls-3" x1="222.79" y1="158.02" x2="869.91" y2="805.14"/><line class="cls-3" x1="241.28" y1="139.53" x2="888.4" y2="786.65"/><line class="cls-3" x1="259.77" y1="121.04" x2="906.89" y2="768.16"/><line class="cls-3" x1="278.26" y1="102.55" x2="925.38" y2="749.67"/><line class="cls-3" x1="296.75" y1="84.06" x2="943.87" y2="731.18"/><line class="cls-3" x1="315.3" y1="65.64" x2="962.42" y2="712.75"/><line class="cls-3" x1="333.79" y1="47.15" x2="980.91" y2="694.27"/><line class="cls-3" x1="352.28" y1="28.66" x2="999.4" y2="675.78"/><line class="cls-3" x1="370.77" y1="10.17" x2="1017.89" y2="657.29"/><line class="cls-3" x1="10.17" y1="370.65" x2="657.29" y2="1017.76"/><line class="cls-3" x1="28.66" y1="352.16" x2="675.78" y2="999.27"/><line class="cls-3" x1="47.15" y1="333.67" x2="694.27" y2="980.78"/><line class="cls-3" x1="65.64" y1="315.18" x2="712.75" y2="962.3"/><line class="cls-3" x1="84.13" y1="296.69" x2="731.24" y2="943.81"/><line class="cls-3" x1="102.61" y1="278.2" x2="749.73" y2="925.32"/><line class="cls-3" x1="121.1" y1="259.71" x2="768.22" y2="906.83"/><line class="cls-3" x1="139.59" y1="241.22" x2="786.71" y2="888.34"/><line class="cls-3" x1="158.08" y1="222.73" x2="805.2" y2="869.85"/><line class="cls-3" x1="176.57" y1="204.24" x2="823.69" y2="851.36"/><line class="cls-3" x1="195.06" y1="185.75" x2="842.18" y2="832.87"/><line class="cls-3" x1="213.55" y1="167.27" x2="860.67" y2="814.38"/><line class="cls-3" x1="232.04" y1="148.78" x2="879.16" y2="795.89"/><line class="cls-3" x1="250.53" y1="130.29" x2="897.64" y2="777.4"/><line class="cls-3" x1="269.02" y1="111.8" x2="916.13" y2="758.92"/><line class="cls-3" x1="287.51" y1="93.31" x2="934.62" y2="740.43"/><line class="cls-3" x1="305.99" y1="74.82" x2="953.11" y2="721.94"/><line class="cls-3" x1="324.54" y1="56.39" x2="971.66" y2="703.51"/><line class="cls-3" x1="343.03" y1="37.9" x2="990.15" y2="685.02"/><line class="cls-3" x1="361.52" y1="19.41" x2="1008.64" y2="666.53"/><line class="cls-3" x1="380.01" y1="0.92" x2="1027.13" y2="648.04"/></g><g class="cls-4"><line class="cls-3" x1="166.96" y1="379.89" x2="814.08" y2="1027.01"/><line class="cls-3" x1="185.45" y1="361.4" x2="832.57" y2="1008.52"/><line class="cls-3" x1="203.94" y1="342.91" x2="851.06" y2="990.03"/><line class="cls-3" x1="222.43" y1="324.42" x2="869.55" y2="971.54"/><line class="cls-3" x1="240.92" y1="305.93" x2="888.04" y2="953.05"/><line class="cls-3" x1="259.41" y1="287.44" x2="906.52" y2="934.56"/><line class="cls-3" x1="277.9" y1="268.96" x2="925.01" y2="916.07"/><line class="cls-3" x1="296.38" y1="250.47" x2="943.5" y2="897.58"/><line class="cls-3" x1="314.87" y1="231.98" x2="961.99" y2="879.09"/><line class="cls-3" x1="333.36" y1="213.49" x2="980.48" y2="860.61"/><line class="cls-3" x1="351.85" y1="195" x2="998.97" y2="842.12"/><line class="cls-3" x1="370.34" y1="176.51" x2="1017.46" y2="823.63"/><line class="cls-3" x1="388.83" y1="158.02" x2="1035.95" y2="805.14"/><line class="cls-3" x1="407.32" y1="139.53" x2="1054.44" y2="786.65"/><line class="cls-3" x1="425.81" y1="121.04" x2="1072.93" y2="768.16"/><line class="cls-3" x1="444.3" y1="102.55" x2="1091.42" y2="749.67"/><line class="cls-3" x1="462.79" y1="84.06" x2="1109.9" y2="731.18"/><line class="cls-3" x1="481.34" y1="65.64" x2="1128.45" y2="712.75"/><line class="cls-3" x1="499.83" y1="47.15" x2="1146.94" y2="694.27"/><line class="cls-3" x1="518.31" y1="28.66" x2="1165.43" y2="675.78"/><line class="cls-3" x1="536.8" y1="10.17" x2="1183.92" y2="657.29"/><line class="cls-3" x1="176.21" y1="370.65" x2="823.32" y2="1017.76"/><line class="cls-3" x1="194.69" y1="352.16" x2="841.81" y2="999.27"/><line class="cls-3" x1="213.18" y1="333.67" x2="860.3" y2="980.78"/><line class="cls-3" x1="231.67" y1="315.18" x2="878.79" y2="962.3"/><line class="cls-3" x1="250.16" y1="296.69" x2="897.28" y2="943.81"/><line class="cls-3" x1="268.65" y1="278.2" x2="915.77" y2="925.32"/><line class="cls-3" x1="287.14" y1="259.71" x2="934.26" y2="906.83"/><line class="cls-3" x1="305.63" y1="241.22" x2="952.75" y2="888.34"/><line class="cls-3" x1="324.12" y1="222.73" x2="971.24" y2="869.85"/><line class="cls-3" x1="342.61" y1="204.24" x2="989.73" y2="851.36"/><line class="cls-3" x1="361.1" y1="185.75" x2="1008.21" y2="832.87"/><line class="cls-3" x1="379.59" y1="167.27" x2="1026.7" y2="814.38"/><line class="cls-3" x1="398.07" y1="148.78" x2="1045.19" y2="795.89"/><line class="cls-3" x1="416.56" y1="130.29" x2="1063.68" y2="777.4"/><line class="cls-3" x1="435.05" y1="111.8" x2="1082.17" y2="758.92"/><line class="cls-3" x1="453.54" y1="93.31" x2="1100.66" y2="740.43"/><line class="cls-3" x1="472.03" y1="74.82" x2="1119.15" y2="721.94"/><line class="cls-3" x1="490.58" y1="56.39" x2="1137.7" y2="703.51"/><line class="cls-3" x1="509.07" y1="37.9" x2="1156.19" y2="685.02"/><line class="cls-3" x1="527.56" y1="19.41" x2="1174.68" y2="666.53"/><line class="cls-3" x1="546.05" y1="0.92" x2="1193.17" y2="648.04"/></g><g class="cls-5"><line class="cls-3" x1="333" y1="379.89" x2="980.12" y2="1027.01"/><line class="cls-3" x1="351.49" y1="361.4" x2="998.6" y2="1008.52"/><line class="cls-3" x1="369.98" y1="342.91" x2="1017.09" y2="990.03"/><line class="cls-3" x1="388.47" y1="324.42" x2="1035.58" y2="971.54"/><line class="cls-3" x1="406.95" y1="305.93" x2="1054.07" y2="953.05"/><line class="cls-3" x1="425.44" y1="287.44" x2="1072.56" y2="934.56"/><line class="cls-3" x1="443.93" y1="268.96" x2="1091.05" y2="916.07"/><line class="cls-3" x1="462.42" y1="250.47" x2="1109.54" y2="897.58"/><line class="cls-3" x1="480.91" y1="231.98" x2="1128.03" y2="879.09"/><line class="cls-3" x1="499.4" y1="213.49" x2="1146.52" y2="860.61"/><line class="cls-3" x1="517.89" y1="195" x2="1165.01" y2="842.12"/><line class="cls-3" x1="536.38" y1="176.51" x2="1183.5" y2="823.63"/><line class="cls-3" x1="554.87" y1="158.02" x2="1201.98" y2="805.14"/><line class="cls-3" x1="573.36" y1="139.53" x2="1220.47" y2="786.65"/><line class="cls-3" x1="591.84" y1="121.04" x2="1238.96" y2="768.16"/><line class="cls-3" x1="610.33" y1="102.55" x2="1257.45" y2="749.67"/><line class="cls-3" x1="628.82" y1="84.06" x2="1275.94" y2="731.18"/><line class="cls-3" x1="647.37" y1="65.64" x2="1294.49" y2="712.75"/><line class="cls-3" x1="665.86" y1="47.15" x2="1312.98" y2="694.27"/><line class="cls-3" x1="684.35" y1="28.66" x2="1331.47" y2="675.78"/><line class="cls-3" x1="702.84" y1="10.17" x2="1349.96" y2="657.29"/><line class="cls-3" x1="342.24" y1="370.65" x2="989.36" y2="1017.76"/><line class="cls-3" x1="360.73" y1="352.16" x2="1007.85" y2="999.27"/><line class="cls-3" x1="379.22" y1="333.67" x2="1026.34" y2="980.78"/><line class="cls-3" x1="397.71" y1="315.18" x2="1044.83" y2="962.3"/><line class="cls-3" x1="416.2" y1="296.69" x2="1063.32" y2="943.81"/><line class="cls-3" x1="434.69" y1="278.2" x2="1081.81" y2="925.32"/><line class="cls-3" x1="453.18" y1="259.71" x2="1100.29" y2="906.83"/><line class="cls-3" x1="471.67" y1="241.22" x2="1118.78" y2="888.34"/><line class="cls-3" x1="490.16" y1="222.73" x2="1137.27" y2="869.85"/><line class="cls-3" x1="508.64" y1="204.24" x2="1155.76" y2="851.36"/><line class="cls-3" x1="527.13" y1="185.75" x2="1174.25" y2="832.87"/><line class="cls-3" x1="545.62" y1="167.27" x2="1192.74" y2="814.38"/><line class="cls-3" x1="564.11" y1="148.78" x2="1211.23" y2="795.89"/><line class="cls-3" x1="582.6" y1="130.29" x2="1229.72" y2="777.4"/><line class="cls-3" x1="601.09" y1="111.8" x2="1248.21" y2="758.92"/><line class="cls-3" x1="619.58" y1="93.31" x2="1266.7" y2="740.43"/><line class="cls-3" x1="638.07" y1="74.82" x2="1285.19" y2="721.94"/><line class="cls-3" x1="656.62" y1="56.39" x2="1303.74" y2="703.51"/><line class="cls-3" x1="675.11" y1="37.9" x2="1322.22" y2="685.02"/><line class="cls-3" x1="693.6" y1="19.41" x2="1340.71" y2="666.53"/><line class="cls-3" x1="712.09" y1="0.92" x2="1359.2" y2="648.04"/></g><g class="cls-6"><line class="cls-3" x1="573.55" y1="379.89" x2="1220.67" y2="1027.01"/><line class="cls-3" x1="592.04" y1="361.4" x2="1239.16" y2="1008.52"/><line class="cls-3" x1="610.53" y1="342.91" x2="1257.65" y2="990.03"/><line class="cls-3" x1="629.02" y1="324.42" x2="1276.14" y2="971.54"/><line class="cls-3" x1="647.51" y1="305.93" x2="1294.63" y2="953.05"/><line class="cls-3" x1="666" y1="287.44" x2="1313.12" y2="934.56"/><line class="cls-3" x1="684.49" y1="268.96" x2="1331.61" y2="916.07"/><line class="cls-3" x1="702.98" y1="250.47" x2="1350.1" y2="897.58"/><line class="cls-3" x1="721.47" y1="231.98" x2="1368.59" y2="879.09"/><line class="cls-3" x1="739.96" y1="213.49" x2="1387.07" y2="860.61"/><line class="cls-3" x1="758.45" y1="195" x2="1405.56" y2="842.12"/><line class="cls-3" x1="776.93" y1="176.51" x2="1424.05" y2="823.63"/><line class="cls-3" x1="795.42" y1="158.02" x2="1442.54" y2="805.14"/><line class="cls-3" x1="813.91" y1="139.53" x2="1461.03" y2="786.65"/><line class="cls-3" x1="832.4" y1="121.04" x2="1479.52" y2="768.16"/><line class="cls-3" x1="850.89" y1="102.55" x2="1498.01" y2="749.67"/><line class="cls-3" x1="869.38" y1="84.06" x2="1516.5" y2="731.18"/><line class="cls-3" x1="887.93" y1="65.64" x2="1535.05" y2="712.75"/><line class="cls-3" x1="906.42" y1="47.15" x2="1553.54" y2="694.27"/><line class="cls-3" x1="924.91" y1="28.66" x2="1572.03" y2="675.78"/><line class="cls-3" x1="943.4" y1="10.17" x2="1590.52" y2="657.29"/><line class="cls-3" x1="582.8" y1="370.65" x2="1229.92" y2="1017.76"/><line class="cls-3" x1="601.29" y1="352.16" x2="1248.41" y2="999.27"/><line class="cls-3" x1="619.78" y1="333.67" x2="1266.9" y2="980.78"/><line class="cls-3" x1="638.27" y1="315.18" x2="1285.38" y2="962.3"/><line class="cls-3" x1="656.76" y1="296.69" x2="1303.87" y2="943.81"/><line class="cls-3" x1="675.24" y1="278.2" x2="1322.36" y2="925.32"/><line class="cls-3" x1="693.73" y1="259.71" x2="1340.85" y2="906.83"/><line class="cls-3" x1="712.22" y1="241.22" x2="1359.34" y2="888.34"/><line class="cls-3" x1="730.71" y1="222.73" x2="1377.83" y2="869.85"/><line class="cls-3" x1="749.2" y1="204.24" x2="1396.32" y2="851.36"/><line class="cls-3" x1="767.69" y1="185.75" x2="1414.81" y2="832.87"/><line class="cls-3" x1="786.18" y1="167.27" x2="1433.3" y2="814.38"/><line class="cls-3" x1="804.67" y1="148.78" x2="1451.79" y2="795.89"/><line class="cls-3" x1="823.16" y1="130.29" x2="1470.28" y2="777.4"/><line class="cls-3" x1="841.65" y1="111.8" x2="1488.76" y2="758.92"/><line class="cls-3" x1="860.14" y1="93.31" x2="1507.25" y2="740.43"/><line class="cls-3" x1="878.62" y1="74.82" x2="1525.74" y2="721.94"/><line class="cls-3" x1="897.17" y1="56.39" x2="1544.29" y2="703.51"/><line class="cls-3" x1="915.66" y1="37.9" x2="1562.78" y2="685.02"/><line class="cls-3" x1="934.15" y1="19.41" x2="1581.27" y2="666.53"/><line class="cls-3" x1="952.64" y1="0.92" x2="1599.76" y2="648.04"/></g><path class="cls-7" d="M610,731.92h-68L695.3,329.27,657.39,355.4,504.13,758.07h68l38.23-26.15c.42-1.39.85-2.79,1.28-4.19Z"/><path class="cls-7" d="M474.37,731.92H331.86L485,329.43l-.2-.18L447.2,355.4Q370.57,556.73,293.94,758.07H436.45l37.93-26.15h0Z"/><path class="cls-7" d="M748.61,731.92h-68L833.88,329.27,796,355.4,642.72,758.07h68l38.23-26.15.51-2.18Z"/><path class="cls-7" d="M891,509.67H833.2l-10,26.15h29.86l38.32-26.15-.2-.54Z"/><path class="cls-7" d="M969.3,393.31H877.49l-10,26.15h63.84l38.49-26.15c-.09-.25-.19-.5-.28-.76C969.49,392.81,969.39,393.06,969.3,393.31Z"/><path class="cls-7" d="M1115.89,509.67h-56.51l-10,26.15H1078l38.32-26.15-.2-.54Z"/><path class="cls-7" d="M1066.61,731.92H906.81l153.24-402.65-37.9,26.13L868.89,758.07h159.8l37.93-26.15h0Z"/><path class="cls-7" d="M1195.47,393.31h-91.81l-10,26.15h63.85l38.49-26.15c-.1-.25-.19-.5-.29-.76C1195.67,392.81,1195.57,393.06,1195.47,393.31Z"/><g class="cls-8"><line class="cls-3" x1="27.68" y1="795.84" x2="674.8" y2="1442.96"/><line class="cls-3" x1="46.17" y1="777.35" x2="693.29" y2="1424.47"/><line class="cls-3" x1="64.66" y1="758.86" x2="711.78" y2="1405.98"/><line class="cls-3" x1="83.15" y1="740.37" x2="730.27" y2="1387.49"/><line class="cls-3" x1="101.64" y1="721.88" x2="748.76" y2="1369"/><line class="cls-3" x1="120.13" y1="703.39" x2="767.25" y2="1350.51"/><line class="cls-3" x1="138.62" y1="684.9" x2="785.73" y2="1332.02"/><line class="cls-3" x1="157.11" y1="666.41" x2="804.22" y2="1313.53"/><line class="cls-3" x1="175.6" y1="647.93" x2="822.71" y2="1295.04"/><line class="cls-3" x1="194.08" y1="629.44" x2="841.2" y2="1276.55"/><line class="cls-3" x1="212.57" y1="610.95" x2="859.69" y2="1258.07"/><line class="cls-3" x1="231.06" y1="592.46" x2="878.18" y2="1239.58"/><line class="cls-3" x1="249.55" y1="573.97" x2="896.67" y2="1221.09"/><line class="cls-3" x1="268.04" y1="555.48" x2="915.16" y2="1202.6"/><line class="cls-3" x1="286.53" y1="536.99" x2="933.65" y2="1184.11"/><line class="cls-3" x1="305.02" y1="518.5" x2="952.14" y2="1165.62"/><line class="cls-3" x1="323.51" y1="500.01" x2="970.63" y2="1147.13"/><line class="cls-3" x1="342.06" y1="481.58" x2="989.18" y2="1128.7"/><line class="cls-3" x1="360.55" y1="463.1" x2="1007.66" y2="1110.21"/><line class="cls-3" x1="379.04" y1="444.61" x2="1026.15" y2="1091.72"/><line class="cls-3" x1="397.53" y1="426.12" x2="1044.64" y2="1073.24"/><line class="cls-3" x1="36.93" y1="786.59" x2="684.05" y2="1433.71"/><line class="cls-3" x1="55.42" y1="768.1" x2="702.53" y2="1415.22"/><line class="cls-3" x1="73.91" y1="749.62" x2="721.02" y2="1396.73"/><line class="cls-3" x1="92.39" y1="731.13" x2="739.51" y2="1378.24"/><line class="cls-3" x1="110.88" y1="712.64" x2="758" y2="1359.76"/><line class="cls-3" x1="129.37" y1="694.15" x2="776.49" y2="1341.27"/><line class="cls-3" x1="147.86" y1="675.66" x2="794.98" y2="1322.78"/><line class="cls-3" x1="166.35" y1="657.17" x2="813.47" y2="1304.29"/><line class="cls-3" x1="184.84" y1="638.68" x2="831.96" y2="1285.8"/><line class="cls-3" x1="203.33" y1="620.19" x2="850.45" y2="1267.31"/><line class="cls-3" x1="221.82" y1="601.7" x2="868.94" y2="1248.82"/><line class="cls-3" x1="240.31" y1="583.21" x2="887.42" y2="1230.33"/><line class="cls-3" x1="258.8" y1="564.72" x2="905.91" y2="1211.84"/><line class="cls-3" x1="277.29" y1="546.24" x2="924.4" y2="1193.35"/><line class="cls-3" x1="295.77" y1="527.75" x2="942.89" y2="1174.86"/><line class="cls-3" x1="314.26" y1="509.26" x2="961.38" y2="1156.38"/><line class="cls-3" x1="332.75" y1="490.77" x2="979.87" y2="1137.89"/><line class="cls-3" x1="351.3" y1="472.34" x2="998.42" y2="1119.46"/><line class="cls-3" x1="369.79" y1="453.85" x2="1016.91" y2="1100.97"/><line class="cls-3" x1="388.28" y1="435.36" x2="1035.4" y2="1082.48"/><line class="cls-3" x1="406.77" y1="416.87" x2="1053.89" y2="1063.99"/><rect class="cls-9" x="0.41" y="71.9" width="135.97" height="135.97"/><rect class="cls-10" x="136.38" y="71.9" width="135.97" height="135.97"/><rect class="cls-11" x="272.35" y="71.9" width="135.97" height="135.97"/><rect class="cls-12" x="408.31" y="71.9" width="135.97" height="135.97"/><rect class="cls-13" x="544.28" y="71.9" width="135.97" height="135.97"/></g><path class="cls-7" d="M143.36,913.85l34.85-81.05L134,861.56,98.91,942.61H752.4l44.2-28.76Z"/></g></g></svg>