<svg id="Capa_1" data-name="Capa 1" xmlns="http://www.w3.org/2000/svg" viewBox="0 0 731.52 111.13"><defs><style>.cls-1{fill:none;stroke:#fff;stroke-linecap:round;stroke-miterlimit:10;stroke-width:2.61px;}.cls-2{fill:#fff;}</style></defs><title>barra</title><line class="cls-1" x1="56.32" y1="54.92" x2="83.77" y2="82.36"/><line class="cls-1" x1="67.48" y1="29.11" x2="120.74" y2="82.36"/><line class="cls-1" x1="78.65" y1="3.29" x2="157.72" y2="82.36"/><line class="cls-1" x1="113.64" y1="1.31" x2="194.7" y2="82.36"/><line class="cls-1" x1="150.62" y1="1.31" x2="231.68" y2="82.36"/><line class="cls-1" x1="187.6" y1="1.31" x2="268.66" y2="82.36"/><line class="cls-1" x1="224.58" y1="1.31" x2="305.63" y2="82.36"/><line class="cls-1" x1="261.56" y1="1.31" x2="342.61" y2="82.36"/><line class="cls-1" x1="298.53" y1="1.31" x2="379.59" y2="82.36"/><line class="cls-1" x1="335.51" y1="1.31" x2="416.57" y2="82.36"/><line class="cls-1" x1="372.49" y1="1.31" x2="453.55" y2="82.36"/><line class="cls-1" x1="409.47" y1="1.31" x2="490.53" y2="82.36"/><line class="cls-1" x1="446.45" y1="1.31" x2="527.5" y2="82.36"/><line class="cls-1" x1="483.42" y1="1.31" x2="564.48" y2="82.36"/><line class="cls-1" x1="520.4" y1="1.31" x2="601.46" y2="82.36"/><line class="cls-1" x1="557.38" y1="1.31" x2="638.44" y2="82.36"/><line class="cls-1" x1="594.36" y1="1.31" x2="675.42" y2="82.36"/><line class="cls-1" x1="631.34" y1="1.31" x2="702.3" y2="72.27"/><line class="cls-1" x1="668.32" y1="1.31" x2="713.47" y2="46.46"/><line class="cls-1" x1="705.29" y1="1.31" x2="724.63" y2="20.64"/><line class="cls-1" x1="50.74" y1="67.83" x2="65.28" y2="82.36"/><line class="cls-1" x1="61.9" y1="42.01" x2="102.25" y2="82.36"/><line class="cls-1" x1="73.07" y1="16.2" x2="139.23" y2="82.36"/><line class="cls-1" x1="95.15" y1="1.31" x2="176.21" y2="82.36"/><line class="cls-1" x1="132.13" y1="1.31" x2="213.19" y2="82.36"/><line class="cls-1" x1="169.11" y1="1.31" x2="250.17" y2="82.36"/><line class="cls-1" x1="206.09" y1="1.31" x2="287.15" y2="82.36"/><line class="cls-1" x1="243.07" y1="1.31" x2="324.12" y2="82.36"/><line class="cls-1" x1="280.04" y1="1.31" x2="361.1" y2="82.36"/><line class="cls-1" x1="317.02" y1="1.31" x2="398.08" y2="82.36"/><line class="cls-1" x1="354" y1="1.31" x2="435.06" y2="82.36"/><line class="cls-1" x1="390.98" y1="1.31" x2="472.04" y2="82.36"/><line class="cls-1" x1="427.96" y1="1.31" x2="509.01" y2="82.36"/><line class="cls-1" x1="464.94" y1="1.31" x2="545.99" y2="82.36"/><line class="cls-1" x1="501.91" y1="1.31" x2="582.97" y2="82.36"/><line class="cls-1" x1="538.89" y1="1.31" x2="619.95" y2="82.36"/><line class="cls-1" x1="575.87" y1="1.31" x2="656.93" y2="82.36"/><line class="cls-1" x1="612.85" y1="1.31" x2="693.91" y2="82.36"/><line class="cls-1" x1="649.83" y1="1.31" x2="707.88" y2="59.37"/><line class="cls-1" x1="686.8" y1="1.31" x2="719.05" y2="33.55"/><line class="cls-1" x1="723.78" y1="1.31" x2="730.21" y2="7.74"/><path class="cls-2" d="M4277.3,2944.9l34.86-81.06-44.25,28.76-35.06,81.06h653.49l44.21-28.76Z" transform="translate(-4232.85 -2862.53)"/></svg>