<svg xmlns="http://www.w3.org/2000/svg" viewBox="0 0 654 344.65"><defs><style>.cls-1{fill:#3ff;}.cls-2{fill:#90cad7;}.cls-3{opacity:0.8;}.cls-4,.cls-5{fill:none;stroke:#fff;stroke-linecap:round;stroke-linejoin:round;stroke-width:5.23px;}.cls-5{stroke-dasharray:26.86 20.15;}.cls-6{fill:#fff;}</style></defs><title>Recurso 5</title><g id="Capa_2" data-name="Capa 2"><g id="Capa_1-2" data-name="Capa 1"><path class="cls-1" d="M347.28,60.05q-97.72-.81-195.46-.94c-26.68-.07-53.87-1.57-80.47,1C50.1,62.23,26.85,68,13.38,86,1.54,101.82,1.72,123.81,1,142.62.49,156.78-.1,171,0,185.14c.09,10.06.52,20.38,3.24,30.13,5.62,20.19,22.37,32.91,42,38.53,12.58,3.61,25.76,4.89,38.76,6q23.53,2,47.14,3.12c47.08,2.18,94.06.17,141.15.31,39.55.11,79.05,2.46,118.6,2.86,29,.29,58,.07,86.93-1.07,20.58-.8,44.63-1.26,62.55-12.84,7.89-5.09,14.15-12.07,16.21-21.32,3.39-15.27,2.3-31.94,2.16-47.45-.22-25.12-.32-50.41-2.32-75.47-.62-7.75-.88-17.16-5.46-23.84C544,74,531.67,68.11,520.28,64.73,497.43,58,472.6,57.48,449,56.67c-16.35-.57-32.7-1.07-49.05-1.61l1.81,1.38c-5.69-32-34.55-52.92-65.6-56.43-2.06-.23-2.25,2.54-.94,3.5A54.19,54.19,0,0,1,350.44,21c7.2,13.24,5.21,28.15-4.48,39.58-1.56,1.83,1.08,4.5,2.65,2.65,9.86-11.62,13-26.7,6.69-40.83A56.86,56.86,0,0,0,337.09.27l-.95,3.49c29.48,3.33,56.61,23.47,62,53.68a1.89,1.89,0,0,0,1.81,1.37c29.67,1,59.57,1,89.12,4.08,17.11,1.78,36.26,4.43,50.43,15.06,6.18,4.63,10,9.4,11.56,16.92,3.28,16.25,2.81,33.61,3.23,50.09.61,23.5,1.57,47.2.29,70.7-.42,7.76-.73,16.61-5.36,23.21-10.17,14.49-29.3,18.67-45.78,20.6-27.35,3.22-55.33,2.76-82.82,2.93-40.44.24-80.77-1.55-121.18-2.54-40.61-1-81.19.85-121.79.55q-41.68-.32-83.27-3.51C69.46,255,39,254.33,19.79,236c-14.6-13.94-16-33.91-16-53,0-13.46.52-26.93,1-40.38.42-11.44.75-23.1,3.12-34.34,10.23-48.55,70.34-45.63,109-45.52q91.65.27,183.29.7,23.55.15,47.11.34C349.7,63.82,349.7,60.07,347.28,60.05Z"/><path class="cls-1" d="M575.93,287.76q17.72,15,34.14,31.43c4.27,4.27,10.89-2.35,6.62-6.62q-16.41-16.41-34.14-31.43c-4.57-3.87-11.23,2.72-6.62,6.62Z"/><path class="cls-1" d="M544.31,300.62v39.51c0,6,9.36,6,9.36,0V300.62c0-6-9.36-6-9.36,0Z"/><path class="cls-1" d="M604.6,260.4h44.88c6,0,6-9.36,0-9.36H604.6c-6,0-6,9.36,0,9.36Z"/><path class="cls-2" d="M354.13,243.87c-6.25.63-7.3-8.3-1.05-8.93S360.39,243.25,354.13,243.87Z"/><path class="cls-2" d="M379.56,243.14c-6.25.62-7.31-8.31-1.05-8.93S385.82,242.51,379.56,243.14Z"/><g class="cls-3"><path class="cls-4" d="M47.13,140.28a80.37,80.37,0,0,0-4.89,12.11"/><path class="cls-5" d="M40.35,172.28a30.86,30.86,0,0,0,1.55,5.91C62.93,234.88,243,222,289,218.72c39.36-2.81,67.59-7.62,119-5.23a654.09,654.09,0,0,1,74,7.67"/><path class="cls-4" d="M491.87,222.84c4.63.82,8.92,1.64,12.84,2.42"/></g><path class="cls-6" d="M98.24,123.92c-1.66,4.21-3.16,8-4.21,10.07-4.36,9-9.92,19.38-14,27.2,0,0-30.5,55-26.59,79.34a2.32,2.32,0,0,1-3.91,2c-6.76-6.47-15.33-21.19-1.2-51,12.47-26.14,29.9-49.14,40.27-64.92a56.28,56.28,0,0,0,5.26-9.76,26,26,0,0,0,1.35-5.11,143.56,143.56,0,0,1-14.58,3.3A59,59,0,0,1,62,115.2c-5-.75-11.72-2.25-15.63-6a9.28,9.28,0,0,1-3.3-8.11c.6-6.91,7.51-10.07,13.22-11.42a52.28,52.28,0,0,1,11.12-1.51c15.48.31,25.7,4.66,30.21,12.93a17.63,17.63,0,0,1,1.8,4.21c6-1.81,12.17-3.91,18.18-6,13.23-4.51,25.55-8.72,35.77-9.92,0,0,7.81-1.36,13.82.9a15.25,15.25,0,0,1,9.17,8.87,5.77,5.77,0,0,1,.3,3.75,8.48,8.48,0,0,1-5.11,4.81s-2.4,1-3.76-1.8c-1.35-3.31-8.26-13.08-23.89-9.47-7.51,1.8-15.93,4.66-24.64,7.66-6.32,2.11-12.78,4.36-19.09,6.32A33.67,33.67,0,0,1,98.24,123.92Zm-3.76-17.28a14.51,14.51,0,0,0-1.35-3.16C89.52,97,81,93.57,67.43,93.27a50.73,50.73,0,0,0-9.92,1.35c-4,.9-9,3-9.31,6.91a4.28,4.28,0,0,0,1.65,3.91c2.4,2.25,6.91,3.9,12.92,4.66a58.53,58.53,0,0,0,17,0A117.15,117.15,0,0,0,94.48,106.64Z"/><path class="cls-6" d="M164.27,157.94c-5.41,9-24.94,40.43-37,38.77,0,0-11.12-.3-6.31-18.18-7.67,9.92-16.54,19.08-23.15,18.18,0,0-13.07-.3-4.81-22.84,5.26-14.42,14.88-28,18.94-33.36a6.27,6.27,0,0,1,4.81-2.4h4.36a2.55,2.55,0,0,1,2.1,3.9c-7.82,12-30.36,47.34-24.65,50.64,0,0,8.87,1.36,28.86-30.05a164,164,0,0,1,14-22.09,6.28,6.28,0,0,1,4.81-2.4h4.36a2.55,2.55,0,0,1,2.1,3.9c-7.81,12-30.35,47.34-24.64,50.64,0,0,9.92,1.51,32.61-35.91a2.47,2.47,0,0,1,2.25-1.35A1.69,1.69,0,0,1,164.27,157.94Zm-12.92-37.27c2,3.16-6,14.43-21.49,11.13,0,0-4.81-1.21-3.16-3.46,1.06-1.5,4.21.15,7.52-2.26,3.15-2.25,4.81-5.1,7.66-6.76C141.88,119.32,147.89,115.71,151.35,120.67Z"/><path class="cls-6" d="M236.26,174.32c-4.36,9.47-7.36,16.83-4.81,18.33,0,0,9.92,1.51,32.61-35.91a2.66,2.66,0,0,1,2.26-1.35,1.7,1.7,0,0,1,1.5,2.55c-5.41,9-24.95,40.43-37.12,38.77,0,0-9.17,0-6-16.08-.9,1.2-1.8,2.26-2.86,3.46-5.86,6.76-11.12,10.67-15.77,11.87a16.25,16.25,0,0,1-3.16.3s-11.27.75-7.06-19.68c3.75-18.94,24.79-39.38,38.77-37.87a11.5,11.5,0,0,1,3.15.75,7.42,7.42,0,0,1,3,2.55,441.59,441.59,0,0,1,31.56-49,6.56,6.56,0,0,1,5-2.4h4.35a2.5,2.5,0,0,1,2,3.91S252.49,139.46,236.26,174.32Zm-8.41-4.66a224.34,224.34,0,0,1,10.51-23.29,3.44,3.44,0,0,0-.6-2.1c-.15-.45-.6-.75-.9-1.06-.6-.3-5.71-1.8-23.44,23.45,0,0-14.73,21.64-8.72,25.09a2.86,2.86,0,0,0,1.66.15c3.6-1.35,8-4.8,12.62-10.22A108.35,108.35,0,0,0,227.85,169.66Z"/><path class="cls-6" d="M314.32,157.94a238.19,238.19,0,0,1-17,24.5,52.63,52.63,0,0,1-13.83,12.17c-5.26,3-11.72,4.36-17.58,2.1-7.82-3-11-9.31-11-15.62,0-8.87,5.41-17.74,5.41-17.74,8.11-14.12,23-25.84,33.81-24.64a11.61,11.61,0,0,1,3.16.75,6.62,6.62,0,0,1,3.15,2.85,11.14,11.14,0,0,1,1.05,6.92,31.07,31.07,0,0,1-6.46,12.92c-3.45,4.06-9.16,8.27-16.68,6.76,0,0-3.6-.75-5-3.15a3.14,3.14,0,0,1-.6.9c-12.77,20.59-3.91,26.15-3.91,26.15,4.66,2.4,9.92.6,14.43-2.41a54.8,54.8,0,0,0,11.27-10.67,195.64,195.64,0,0,0,15.93-23,2.47,2.47,0,0,1,2.25-1.35A1.7,1.7,0,0,1,314.32,157.94Zm-37,2.56c-2,3.15.75,4.5.75,4.5,1.8.91,4.36.61,6.31,0a19.05,19.05,0,0,0,6.31-4.2,27.68,27.68,0,0,0,6.62-11.27c1.5-5.26-.91-6.32-.91-6.32C295.83,142.91,291.48,141.56,277.35,160.5Z"/><path class="cls-6" d="M313.73,192.81c4.51,2.4,9.77.6,14.28-2.41a54.8,54.8,0,0,0,11.27-10.67,181,181,0,0,0,15.93-23,2.64,2.64,0,0,1,2.25-1.35,1.7,1.7,0,0,1,1.5,2.55c-2.85,4.66-9.46,15.48-17,24.5a52.69,52.69,0,0,1-13.82,12.17c-5.11,3-11.58,4.36-17.44,2.1-7.36-2.85-10.51-8.56-10.81-14.42-.46-9.17,5.25-18.94,5.25-18.94,8-14.12,22.85-25.84,33.67-24.64a11.5,11.5,0,0,1,3.15.75,8,8,0,0,1,3.31,2.85,10.23,10.23,0,0,1,.9,6.92s-2,10.52-7.06,8c-3.76-1.8-.91-5.71-.91-5.71.76-1.35,2.11-2.85,2.71-3.91,1.95-3.3.15-4.36.15-4.36-.6-.3-5.71-1.8-23.59,23.45C304.71,187.25,313.73,192.81,313.73,192.81Z"/><path class="cls-6" d="M388.28,157.94c-5.41,9-24.95,40.43-37,38.77,0,0-13.07-.3-4.81-22.84,5.26-14.42,14.88-28,18.94-33.36a6.27,6.27,0,0,1,4.81-2.4h4.35a2.55,2.55,0,0,1,2.11,3.9c-7.82,12-30.36,47.34-24.65,50.64,0,0,9.92,1.51,32.61-35.91a2.49,2.49,0,0,1,2.26-1.35A1.64,1.64,0,0,1,388.28,157.94ZM370.4,132.25c0-1.66,2.4-3,5.11-3s5.11,1.35,5.11,3-2.26,3-5.11,3S370.4,133.9,370.4,132.25Z"/><path class="cls-6" d="M414.74,174.32c-4.36,9.47-7.36,16.83-4.81,18.33,0,0,9.92,1.51,32.61-35.91a2.66,2.66,0,0,1,2.26-1.35,1.7,1.7,0,0,1,1.5,2.55c-5.41,9-24.95,40.43-37.12,38.77,0,0-9.17,0-6-16.08-.9,1.2-1.8,2.26-2.85,3.46-5.86,6.76-11.13,10.67-15.78,11.87a16.25,16.25,0,0,1-3.16.3s-11.27.75-7.06-19.68c3.75-18.94,24.79-39.38,38.77-37.87a11.5,11.5,0,0,1,3.15.75,7.42,7.42,0,0,1,3,2.55,441.59,441.59,0,0,1,31.56-49,6.56,6.56,0,0,1,5-2.4h4.35a2.5,2.5,0,0,1,2,3.91S431,139.46,414.74,174.32Zm-8.41-4.66a224.34,224.34,0,0,1,10.51-23.29,3.44,3.44,0,0,0-.6-2.1c-.15-.45-.6-.75-.9-1.06-.6-.3-5.71-1.8-23.44,23.45,0,0-14.73,21.64-8.72,25.09a2.86,2.86,0,0,0,1.66.15c3.6-1.35,8-4.8,12.62-10.22A108.35,108.35,0,0,0,406.33,169.66Z"/><path class="cls-6" d="M492.8,157.94a237,237,0,0,1-17,24.5A52.69,52.69,0,0,1,462,194.61c-5.26,3-11.72,4.36-17.58,2.1-7.82-3-11-9.31-11-15.62,0-8.87,5.41-17.74,5.41-17.74,8.11-14.12,23-25.84,33.81-24.64a11.5,11.5,0,0,1,3.15.75,6.6,6.6,0,0,1,3.16,2.85,11.14,11.14,0,0,1,1,6.92,31.07,31.07,0,0,1-6.46,12.92c-3.46,4.06-9.17,8.27-16.68,6.76,0,0-3.61-.75-5-3.15a3.14,3.14,0,0,1-.6.9c-12.77,20.59-3.91,26.15-3.91,26.15,4.66,2.4,9.92.6,14.43-2.41a54.8,54.8,0,0,0,11.27-10.67,195.64,195.64,0,0,0,15.93-23,2.47,2.47,0,0,1,2.25-1.35A1.7,1.7,0,0,1,492.8,157.94Zm-37,2.56c-1.95,3.15.75,4.5.75,4.5,1.8.91,4.36.61,6.31,0a19.05,19.05,0,0,0,6.31-4.2,27.59,27.59,0,0,0,6.61-11.27c1.51-5.26-.9-6.32-.9-6.32C474.31,142.91,470,141.56,455.83,160.5Z"/><path class="cls-6" d="M536.13,157.94c-1,1.66-2.7,4.36-4.65,7.52,0,0-5.11,8.86-14.73,10.67a30.65,30.65,0,0,1-4.06,10.51c-5.26,8.72-17.13,13.53-26,9.32,0,0-9.76-4.06-6.31-14.28,0,0,3.91-13.52,25.25-10.06a2.55,2.55,0,0,1,1.05.15c-.75-7.07-6.91-16.23-9.32-19.69-3.15,5.26-5.25,8.42-7.06,11.12a1.63,1.63,0,0,1-2.85-.15,2.24,2.24,0,0,1,.15-2.55c2.4-3.76,4.81-7.52,7.21-11.87-9.17-13.08-2.55-19.84,3.16-20.89,6.31-1,7.06,4.06,7.06,4.06.9,4-2.26,10.82-3.76,13.67,1.2,1.2,2.71,2.7,4.51,4.51,5,5.11,11.27,12.17,11.42,21.64a16.76,16.76,0,0,0,10.37-7.22c1.65-2.4,3.16-5,5-7.66a2.33,2.33,0,0,1,2.25-1.35A1.69,1.69,0,0,1,536.13,157.94Zm-29.9,18.34c-9-.61-17.88-.91-20.44,6-1.5,4.05,2.41,6,2.41,6C500.67,193.26,506.23,176.28,506.23,176.28Zm-7.66-34.42a35.11,35.11,0,0,0,1.35-3.6c1.5-5-1.35-4.51-1.35-4.51C497.06,134.05,495.26,136.45,498.57,141.86Z"/></g></g></svg>