<svg xmlns="http://www.w3.org/2000/svg" viewBox="0 0 56.64 56.57"><defs><style>.cls-1{fill:#fff;}</style></defs><title>Recurso 5</title><g id="Capa_2" data-name="Capa 2"><g id="Capa_1-2" data-name="Capa 1"><g id="Grupo_419" data-name="Grupo 419"><path id="Trazado_312" data-name="Trazado 312" class="cls-1" d="M35.91,38.57a4.62,4.62,0,0,1-1.62,2.52C30.47,45,26.66,48.82,22.77,52.61a13.25,13.25,0,0,1-21.58-4A13.06,13.06,0,0,1,3.63,34.17c4-4.2,8.09-8.34,12.33-12.3,5.77-5.39,15.49-4,19.85,2.58,1.22,1.85,1.11,2.5-.64,3.9C33,30.09,31,30,29.16,28a6,6,0,0,0-8.54-.36l-.17.16q-5.5,5.49-11,11c-2.55,2.57-2.72,6.15-.43,8.53s6,2.52,8.68-.07,5.33-5.26,7.94-8a2.35,2.35,0,0,1,2.81-.79C30.85,39.39,33.29,38.86,35.91,38.57Z"/><path id="Trazado_313" data-name="Trazado 313" class="cls-1" d="M20.57,18.12a7.36,7.36,0,0,1,2-2.9c3.78-3.81,7.53-7.65,11.37-11.4,5.2-5.06,13.78-5.08,18.63-.13A13.24,13.24,0,0,1,53,22.43l-.25.26C48.86,26.61,45,30.52,41,34.32a13.31,13.31,0,0,1-18.83-.53A12.83,12.83,0,0,1,20.8,32c-.95-1.45-1-2.47.44-3.65,2.28-1.88,4.28-1.87,6.29.27a5.79,5.79,0,0,0,8.15.57l.1-.1q6.18-5.85,12-12a5.7,5.7,0,0,0-.45-8l-.05,0a5.8,5.8,0,0,0-8,0c-2.76,2.62-5.43,5.34-8.08,8.07A2.85,2.85,0,0,1,28,18,13.54,13.54,0,0,0,20.57,18.12Z"/></g></g></g></svg>