<svg xmlns="http://www.w3.org/2000/svg" viewBox="0 0 60 60.01"><defs><style>.cls-1{fill:#fff;}</style></defs><title>Recurso 12</title><g id="Capa_2" data-name="Capa 2"><g id="Capa_1-2" data-name="Capa 1"><g id="custom"><path id="Trazado_40" data-name="Trazado 40" class="cls-1" d="M25.87,0H34.4a4.23,4.23,0,0,1,2.49,4.32c0,.84,0,1.68,0,2.53a1.33,1.33,0,0,0,1,1.4c3,1.34,3,1.36,5.33-1l.66-.65a3.83,3.83,0,0,1,5.41-.31,3.57,3.57,0,0,1,.28.27c1.36,1.28,2.67,2.6,3.95,4A3.83,3.83,0,0,1,53.73,16a3.7,3.7,0,0,1-.28.28c-.75.81-1.55,1.58-2.33,2.37A1.27,1.27,0,0,0,50.69,20c1,3.09,1,3.1,4.21,3.1h.8A4.11,4.11,0,0,1,60,25.6v8.54a4.16,4.16,0,0,1-4.53,2.75c-.75,0-1.51.06-2.26,0-1.19-.13-1.68.47-2.18,1.47-.75,1.46-.66,2.53.71,3.52a12.27,12.27,0,0,1,1.7,1.68,3.81,3.81,0,0,1,.32,5.38,3.22,3.22,0,0,1-.32.32c-1.26,1.32-2.55,2.6-3.87,3.87a3.88,3.88,0,0,1-5.8,0c-.87-.82-1.71-1.68-2.56-2.53A1.05,1.05,0,0,0,40,50.18c-2.94.87-3.16,1.15-3.16,4.23,0,.27,0,.53,0,.8A4.76,4.76,0,0,1,34.4,60H25.87a4.89,4.89,0,0,1-2.76-5.16c.06-.61,0-1.25,0-1.86.12-1.12-.36-1.66-1.41-2-2.19-.79-2.17-.85-3.83.81-.44.44-.87.88-1.32,1.31a3.85,3.85,0,0,1-5.45.39,2.65,2.65,0,0,1-.34-.33c-1.32-1.26-2.59-2.57-3.87-3.85a3.88,3.88,0,0,1-1.19-3.39,5.31,5.31,0,0,1,1.94-3.08c2.12-2.11,2.09-2.1,1-4.86A1.44,1.44,0,0,0,7,36.89c-.62,0-1.25,0-1.87,0A5,5,0,0,1,0,34.13V25.6a4.86,4.86,0,0,1,5.07-2.47c2,.22,3.5-.14,3.87-2.43A2.16,2.16,0,0,1,9.28,20a1.13,1.13,0,0,0-.17-1.58l-.07,0c-.75-.69-1.46-1.43-2.16-2.18a3.85,3.85,0,0,1-.19-5.44,1.37,1.37,0,0,1,.17-.17q2-2.1,4.05-4.06a3.78,3.78,0,0,1,5.34-.13l.16.16c.78.72,1.52,1.5,2.27,2.26a1.13,1.13,0,0,0,1.16.43c2.81-.69,3.28-1.25,3.28-4.13,0-.13,0-.26,0-.4A4.33,4.33,0,0,1,25.87,0ZM27,52.46c0,.8,0,1.6,0,2.4s.34,1.4,1.32,1.38,2.22,0,3.33,0S33,55.83,33,54.87c0-1.46,0-2.93,0-4.4A2.23,2.23,0,0,1,34.87,48a15.37,15.37,0,0,0,4.42-1.81c1.55-.88,2.1-.8,3.42.46q1.6,1.52,3.13,3.09a1,1,0,0,0,1.38.3,1,1,0,0,0,.31-.3c.82-.87,1.66-1.73,2.55-2.54.65-.6.57-1.05,0-1.64a31.75,31.75,0,0,1-3.48-3.67,2.17,2.17,0,0,1-.19-2.6,19,19,0,0,0,1.91-4.53A2.18,2.18,0,0,1,50.63,33c1.38,0,2.76-.05,4.14,0,1.11,0,1.52-.43,1.47-1.5s0-2.14,0-3.2c0-.9-.36-1.3-1.28-1.29-1.42,0-2.84,0-4.26,0a2.14,2.14,0,0,1-2.24-1.71,22.56,22.56,0,0,0-2.06-5.19,2.09,2.09,0,0,1,.47-2.77c1.11-1.08,2.2-2.2,3.31-3.27.48-.47.55-.86,0-1.35Q48.83,11.39,47.49,10a.94.94,0,0,0-1.31-.26.87.87,0,0,0-.27.27c-1,1.05-2.07,2.07-3.1,3.11a2.14,2.14,0,0,1-2.89.39A18.49,18.49,0,0,0,35,11.41a2.44,2.44,0,0,1-2-2.59c0-1.34,0-2.67,0-4,0-.82-.29-1.25-1.16-1.24q-1.8,0-3.6,0C27.4,3.57,27,4,27,4.79c0,1.33,0,2.67,0,4a2.34,2.34,0,0,1-1.89,2.53,22.93,22.93,0,0,0-4.91,2,2.18,2.18,0,0,1-3-.5c-.9-1-1.88-1.89-2.8-2.85a.94.94,0,0,0-1.3-.29.9.9,0,0,0-.28.27c-.83.87-1.67,1.72-2.55,2.54-.64.6-.57,1.09,0,1.66,1,.92,1.88,1.89,2.85,2.8a2.25,2.25,0,0,1,.42,3.11,15.9,15.9,0,0,0-2.06,5A2.18,2.18,0,0,1,9.18,27c-1.37,0-2.75,0-4.13,0-.9,0-1.3.37-1.28,1.27,0,1.11,0,2.23,0,3.34,0,.94.35,1.38,1.33,1.36,1.42,0,2.84,0,4.27,0a2.2,2.2,0,0,1,2.33,1.77,18.76,18.76,0,0,0,2.07,4.75,2.18,2.18,0,0,1-.39,3c-1,1-2,2-3,3-.68.64-.63,1.15,0,1.77.88.81,1.73,1.66,2.54,2.54.57.62,1,.53,1.53,0,.91-1,1.88-1.89,2.83-2.83,1.47-1.45,1.94-1.51,3.74-.59a12.57,12.57,0,0,0,2.54,1.14c4.19,1.09,3.4,1.76,3.45,5Z"/><path id="Trazado_41" data-name="Trazado 41" class="cls-1" d="M30.12,41.77A12.27,12.27,0,1,1,42.45,29.49,12.26,12.26,0,0,1,30.12,41.77Zm0-3.91a8.39,8.39,0,1,0-.09,0Z"/></g></g></g></svg>