<svg xmlns="http://www.w3.org/2000/svg" viewBox="0 0 244 244"><defs><style>.cls-1{fill:none;stroke:#fff;stroke-width:6px;}.cls-2{fill:#fff;}</style></defs><title>Recurso 25</title><g id="Capa_2" data-name="Capa 2"><g id="Capa_2-2" data-name="Capa 2"><g id="Grupo_196" data-name="Grupo 196"><path id="Trazado_74" data-name="Trazado 74" class="cls-1" d="M241,122A119,119,0,1,1,122,3,119,119,0,0,1,241,122Z"/><g id="Grupo_175" data-name="Grupo 175"><g id="Grupo_172" data-name="Grupo 172"><g id="Grupo_171" data-name="Grupo 171"><path id="Trazado_75" data-name="Trazado 75" class="cls-2" d="M183.6,136.21a3.69,3.69,0,0,1-1.09-.16l-25.28-7.38a3.89,3.89,0,0,1-.7-7.17s19.67-10.17,25.55-13.31a3.89,3.89,0,0,1,3.76,6.8l-.11.05c-3.3,1.77-10.95,5.74-17,8.9l16,4.66a3.88,3.88,0,0,1-1.09,7.61Z"/></g></g><g id="Grupo_174" data-name="Grupo 174"><g id="Grupo_173" data-name="Grupo 173"><path id="Trazado_76" data-name="Trazado 76" class="cls-2" d="M60.39,136.21a3.88,3.88,0,0,1-1.08-7.61l16-4.66c-6.08-3.16-13.72-7.13-17-8.9a3.88,3.88,0,0,1,3.65-6.85h0c5.89,3.14,25.55,13.31,25.55,13.31a3.88,3.88,0,0,1-.7,7.17l-25.28,7.38A3.64,3.64,0,0,1,60.39,136.21Z"/></g></g></g><g id="Grupo_178" data-name="Grupo 178"><g id="Grupo_176" data-name="Grupo 176"><path id="Trazado_77" data-name="Trazado 77" class="cls-2" d="M199,87.11a3,3,0,0,1-.6,0c-19.35-3-29.06-18.67-29.46-19.34a3.88,3.88,0,0,1,6.62-4h0c.08.13,8.34,13.28,24,15.7a3.88,3.88,0,0,1-.58,7.72Z"/></g><g id="Grupo_177" data-name="Grupo 177"><path id="Trazado_78" data-name="Trazado 78" class="cls-2" d="M45,87.11a3.88,3.88,0,0,1-.6-7.72c15.81-2.44,23.94-15.56,24-15.7a3.88,3.88,0,0,1,6.63,4h0c-.41.66-10.13,16.35-29.47,19.34A3.81,3.81,0,0,1,45,87.11Z"/></g></g><g id="Grupo_179" data-name="Grupo 179"><path id="Trazado_79" data-name="Trazado 79" class="cls-2" d="M80.11,191a5.73,5.73,0,0,1-4-1.61l-10.47-10a5.82,5.82,0,1,1,8-8.46l0,0,6.44,6.17L97,161a5.82,5.82,0,0,1,8,0L122,177.16,138.89,161a5.83,5.83,0,0,1,8.05,0l16.93,16.18,6.46-6.17a5.82,5.82,0,1,1,8,8.42l-10.49,10a5.8,5.8,0,0,1-8,0l-16.93-16.18L126,189.42a5.83,5.83,0,0,1-8,0l-16.9-16.18L84.14,189.42A5.76,5.76,0,0,1,80.11,191Z"/></g></g></g></g></svg>