<svg xmlns="http://www.w3.org/2000/svg" viewBox="0 0 244 244"><defs><style>.cls-1{fill:none;stroke:#fff;stroke-width:6px;}.cls-2{fill:#fff;}.cls-3{opacity:0.4;}</style></defs><title>Recurso 23</title><g id="Capa_2" data-name="Capa 2"><g id="Capa_2-2" data-name="Capa 2"><g id="emoji"><path id="Trazado_129" data-name="Trazado 129" class="cls-1" d="M241,122A119,119,0,1,1,122,3,119,119,0,0,1,241,122Z"/><g id="Grupo_234" data-name="Grupo 234"><g id="Grupo_233" data-name="Grupo 233"><path id="Trazado_130" data-name="Trazado 130" class="cls-2" d="M146,179.51a5.46,5.46,0,0,1-3.69-1.45,29.6,29.6,0,0,0-19.15-7.64A29.17,29.17,0,0,0,101.77,178a5.4,5.4,0,0,1-7.55-7.73l.09-.09a41.46,41.46,0,0,1,55.33-.05,5.41,5.41,0,0,1-3.68,9.37Z"/></g></g><g id="Grupo_237" data-name="Grupo 237"><g id="Grupo_235" data-name="Grupo 235"><path id="Trazado_131" data-name="Trazado 131" class="cls-2" d="M50.12,83.93A3.35,3.35,0,0,1,47.94,78,49.52,49.52,0,0,1,75.48,66.41a3.35,3.35,0,0,1,.6,6.68,42.84,42.84,0,0,0-23.78,10A3.36,3.36,0,0,1,50.12,83.93Z"/></g><g id="Grupo_236" data-name="Grupo 236"><path id="Trazado_132" data-name="Trazado 132" class="cls-2" d="M193.88,83.93a3.33,3.33,0,0,1-2.18-.8,42.81,42.81,0,0,0-23.79-10,3.35,3.35,0,0,1,.6-6.68A49.66,49.66,0,0,1,196.06,78a3.36,3.36,0,0,1,.37,4.73,3.31,3.31,0,0,1-2.56,1.17Z"/></g></g><path id="Sustracci贸n_2" data-name="Sustracci贸n 2" class="cls-2" d="M172.7,141.12a24.23,24.23,0,0,1-9.78-2.05,25,25,0,0,1-8-5.57,25.92,25.92,0,0,1-5.39-8.27,27,27,0,0,1,0-20.24,25.92,25.92,0,0,1,5.39-8.27,25,25,0,0,1,8-5.57,24.46,24.46,0,0,1,19.56,0,25,25,0,0,1,8,5.57,25.89,25.89,0,0,1,5.38,8.27,26.85,26.85,0,0,1,0,20.24,25.89,25.89,0,0,1-5.38,8.27,24.86,24.86,0,0,1-8,5.57A24.2,24.2,0,0,1,172.7,141.12Zm0-37.12a11.12,11.12,0,1,0,10.74,11.1A10.93,10.93,0,0,0,172.7,104Z"/><path id="Sustracci贸n_1" data-name="Sustracci贸n 1" class="cls-2" d="M71.3,141.12a24.2,24.2,0,0,1-9.78-2.05,24.86,24.86,0,0,1-8-5.57,25.92,25.92,0,0,1-5.39-8.27,26.85,26.85,0,0,1,0-20.24,25.92,25.92,0,0,1,5.39-8.27,24.86,24.86,0,0,1,8-5.57,24.46,24.46,0,0,1,19.56,0,25.12,25.12,0,0,1,8,5.57A25.89,25.89,0,0,1,94.45,105a26.85,26.85,0,0,1,0,20.24,25.89,25.89,0,0,1-5.38,8.27,25,25,0,0,1-8,5.57A24.2,24.2,0,0,1,71.3,141.12Zm0-37.12A11.12,11.12,0,1,0,82,115.1,10.94,10.94,0,0,0,71.3,104Z"/><g id="Grupo_247" data-name="Grupo 247"><g id="Grupo_245" data-name="Grupo 245" class="cls-3"><path id="Trazado_137" data-name="Trazado 137" class="cls-2" d="M215.53,165a18.35,18.35,0,1,1-18.34-18.35A18.33,18.33,0,0,1,215.53,165Z"/></g><g id="Grupo_246" data-name="Grupo 246" class="cls-3"><path id="Trazado_138" data-name="Trazado 138" class="cls-2" d="M65.15,165a18.35,18.35,0,1,1-18.34-18.35A18.34,18.34,0,0,1,65.15,165Z"/></g></g></g></g></g></svg>