<svg xmlns="http://www.w3.org/2000/svg" viewBox="0 0 244 244"><defs><style>.cls-1{opacity:0.63;}.cls-2{fill:#fff;}.cls-3,.cls-4{fill:none;stroke:#fff;}.cls-3{stroke-width:6px;}.cls-4{stroke-linecap:round;stroke-linejoin:round;stroke-width:8px;}</style></defs><title>Recurso 26</title><g id="Capa_2" data-name="Capa 2"><g id="Capa_2-2" data-name="Capa 2"><g id="Grupo_261" data-name="Grupo 261"><g id="Grupo_257" data-name="Grupo 257"><g id="Grupo_252" data-name="Grupo 252" class="cls-1"><g id="Grupo_250" data-name="Grupo 250"><path id="Trazado_141" data-name="Trazado 141" class="cls-2" d="M187.81,95.78l-15.72-5.49V226.7A109.16,109.16,0,0,0,203.53,208V90.29Z"/></g><g id="Grupo_251" data-name="Grupo 251"><path id="Trazado_142" data-name="Trazado 142" class="cls-2" d="M56.19,95.78,40.47,90.29V208A109.49,109.49,0,0,0,71.91,226.7V90.29Z"/></g></g><g id="Grupo_254" data-name="Grupo 254"><g id="Grupo_253" data-name="Grupo 253"><path id="Trazado_143" data-name="Trazado 143" class="cls-2" d="M43.34,87.83a1.87,1.87,0,0,0-2.58.6,1.93,1.93,0,0,0-.29,1v0a15.72,15.72,0,1,0,31.44,0v0a1.87,1.87,0,0,0-2.86-1.56A24.45,24.45,0,0,1,43.34,87.83Z"/></g></g><g id="Grupo_256" data-name="Grupo 256"><g id="Grupo_255" data-name="Grupo 255"><path id="Trazado_144" data-name="Trazado 144" class="cls-2" d="M175,87.83a1.88,1.88,0,0,0-2.58.6,1.82,1.82,0,0,0-.28,1v0a15.72,15.72,0,0,0,31.44,0v0a1.86,1.86,0,0,0-1.9-1.84,1.82,1.82,0,0,0-1,.28,24.47,24.47,0,0,1-25.72,0Z"/></g></g></g><path id="Trazado_139" data-name="Trazado 139" class="cls-3" d="M241,122A119,119,0,1,1,122,3h0A119,119,0,0,1,241,122Z"/><g id="Grupo_249" data-name="Grupo 249"><g id="Grupo_248" data-name="Grupo 248"><path id="Trazado_140" data-name="Trazado 140" class="cls-4" d="M122,194.27h0a23.71,23.71,0,0,1-23.71-23.71h0v-13.9A23.71,23.71,0,0,1,122,132.94h0a23.72,23.72,0,0,1,23.72,23.71h0v13.9A23.71,23.71,0,0,1,122,194.27Z"/></g></g><g id="Grupo_260" data-name="Grupo 260"><g id="Grupo_258" data-name="Grupo 258"><path id="Trazado_145" data-name="Trazado 145" class="cls-2" d="M199,72.69a4,4,0,0,1-.6,0C179.1,69.66,169.38,54,169,53.31a3.88,3.88,0,0,1,6.63-4h0c.14.24,8.4,13.3,24,15.71a3.88,3.88,0,0,1-.59,7.71Z"/></g><g id="Grupo_259" data-name="Grupo 259"><path id="Trazado_146" data-name="Trazado 146" class="cls-2" d="M45,72.69A3.88,3.88,0,0,1,44.37,65c15.7-2.42,23.95-15.58,24-15.71a3.88,3.88,0,0,1,6.63,4c-.41.66-10.12,16.35-29.47,19.34A4,4,0,0,1,45,72.69Z"/></g></g></g></g></g></svg>