<svg xmlns="http://www.w3.org/2000/svg" viewBox="0 0 86.73 65"><defs><style>.cls-1{fill:#fff;}.cls-2{fill:none;stroke:#fff;stroke-linecap:round;stroke-linejoin:round;stroke-width:5px;}</style></defs><title>Recurso 6</title><g id="Capa_2" data-name="Capa 2"><g id="Capa_1-2" data-name="Capa 1"><g id="CC"><g id="Grupo_86" data-name="Grupo 86"><path id="Trazado_45" data-name="Trazado 45" class="cls-1" d="M22.38,33c0,1.59,0,3.19,0,4.78a5.61,5.61,0,0,0,10.83,2.14,3.1,3.1,0,0,1,3.35-2.14,3,3,0,0,1,2.58,4,11.62,11.62,0,0,1-9.52,7.88c-7,1.1-13.1-4.49-13.46-11.09a90.33,90.33,0,0,1,0-11.75A12.18,12.18,0,0,1,26.4,16.22,11.88,11.88,0,0,1,39,23.62c.75,1.87.16,3.59-1.46,4.3a3.16,3.16,0,0,1-4.18-1.6,1.88,1.88,0,0,1-.12-.3,5.61,5.61,0,0,0-10.68.74,12.07,12.07,0,0,0-.15,2.94c0,1.09,0,2.18,0,3.27Z"/><path id="Trazado_46" data-name="Trazado 46" class="cls-1" d="M45.6,32.94a46,46,0,0,1,.29-7,12.18,12.18,0,0,1,11.82-9.81,12,12,0,0,1,11,7.91,3,3,0,0,1-1.56,3.9A3.12,3.12,0,0,1,63,26.49,7.7,7.7,0,0,0,61.42,24a5.38,5.38,0,0,0-5.81-1.2A5.15,5.15,0,0,0,52,27.45a74.37,74.37,0,0,0,0,11.07,5.07,5.07,0,0,0,3.51,4.53,5.37,5.37,0,0,0,5.66-.92,6.49,6.49,0,0,0,1.75-2.52,3.11,3.11,0,0,1,5.7,2.47,11.31,11.31,0,0,1-2.09,3.5c-3.3,3.66-7.37,5.1-12.12,3.74-4.91-1.41-7.73-4.9-8.61-9.93A44.81,44.81,0,0,1,45.6,32.94Z"/></g><path id="Trazado_47" data-name="Trazado 47" class="cls-2" d="M84.23,51v6.87a4.77,4.77,0,0,1-4.9,4.63H7.4a4.78,4.78,0,0,1-4.9-4.63V7.13A4.78,4.78,0,0,1,7.4,2.5H79.33a4.77,4.77,0,0,1,4.9,4.63V34.06"/></g></g></g></svg>