<svg xmlns="http://www.w3.org/2000/svg" viewBox="0 0 56.79 56.63"><defs><style>.cls-1{fill:#fff;}</style></defs><title>Recurso 4</title><g id="Capa_2" data-name="Capa 2"><g id="Capa_1-2" data-name="Capa 1"><g id="Grupo_422" data-name="Grupo 422"><path id="Trazado_319" data-name="Trazado 319" class="cls-1" d="M28.36.07C32.23.07,36.11,0,40,.09A17.7,17.7,0,0,1,50.19,3.14a14.88,14.88,0,0,1,6.26,11.49c.6,8.17.21,16.35.23,24.53a20.15,20.15,0,0,1-1.17,7.18A14.51,14.51,0,0,1,45,55.86a34.47,34.47,0,0,1-8.54.75c-6.41,0-12.82,0-19.24,0a18.83,18.83,0,0,1-8.89-2A14.67,14.67,0,0,1,.59,43.71a25.62,25.62,0,0,1-.45-4.78C.1,32.75,0,26.58,0,20.4,0,17.21,0,14,1.06,10.89c2-6,6.24-9.39,12.4-10.43C18.4-.37,23.39.2,28.36.07Zm23.07,28.3c-.06-4.53.17-9.08-.39-13.6-.51-4.08-2.49-7-6.48-8.47a18.22,18.22,0,0,0-5.72-.83c-7.85-.22-15.68-.32-23.52.2C9.94,6,6.16,9.88,5.75,15.39c-.26,3.53-.23,7.07-.3,10.6a124.34,124.34,0,0,0,.36,15.8c.48,4.44,2.74,7.48,7.17,8.76a24.37,24.37,0,0,0,6.53.77c5.58.08,11.15.09,16.73,0A31.58,31.58,0,0,0,44,50.54a9.3,9.3,0,0,0,5.46-4,13,13,0,0,0,1.8-6.48c.26-3.9.14-7.81.18-11.71Z"/><path id="Trazado_320" data-name="Trazado 320" class="cls-1" d="M28.56,13.67a14.57,14.57,0,1,1-.59,0ZM28.5,37.54a9.2,9.2,0,1,0-9.27-9.13v.06a9.17,9.17,0,0,0,9.26,9.07Z"/><path id="Trazado_321" data-name="Trazado 321" class="cls-1" d="M40,13.16a3.48,3.48,0,0,1,3.5-3.47h0a3.59,3.59,0,0,1,3.53,3.6,3.48,3.48,0,0,1-3.48,3.47h-.23A3.42,3.42,0,0,1,40,13.26.34.34,0,0,1,40,13.16Z"/></g></g></g></svg>